<svg width="36" height="36" viewBox="0 0 36 36" fill="none" xmlns="http://www.w3.org/2000/svg">
<g filter="url(#filter0_b_12_1937)">
<path d="M18 36C27.9411 36 36 27.9411 36 18C36 8.05888 27.9411 0 18 0C8.05888 0 0 8.05888 0 18C0 27.9411 8.05888 36 18 36Z" fill="#FF6E99"/>
<path d="M35.75 18C35.75 27.8031 27.8031 35.75 18 35.75C8.19695 35.75 0.25 27.8031 0.25 18C0.25 8.19695 8.19695 0.25 18 0.25C27.8031 0.25 35.75 8.19695 35.75 18Z" stroke="url(#paint0_linear_12_1937)" stroke-width="0.5"/>
</g>
<g clip-path="url(#clip0_12_1937)">
<path d="M11.105 21.4001C10.8832 21.4034 10.6169 21.4318 10.416 21.5794C10.2954 21.6679 10.1946 21.803 10.1637 21.9792C10.1351 22.1419 10.1765 22.281 10.2184 22.3729C10.2971 22.5457 10.4351 22.6795 10.5355 22.764C10.6454 22.8566 10.7693 22.9387 10.8836 23.0004C10.9196 23.0212 10.9852 23.0738 11.0743 23.1744C11.161 23.2724 11.2509 23.3939 11.3369 23.5247C11.5091 23.7866 11.6391 24.0443 11.682 24.1512C11.8081 24.5019 12.0827 25.0259 12.7195 25.383C13.2572 25.6845 13.9972 25.8356 15.0143 25.7279C15.0154 25.9374 15.0171 26.1349 15.0188 26.311C15.0197 26.4144 15.0207 26.5099 15.0216 26.5959C15.0235 26.7801 15.0249 26.9206 15.025 27.0023C15.0098 27.0034 14.9871 27.0035 14.9557 26.9997C11.1991 25.729 8.5 22.1882 8.5 18C8.5 12.7511 12.7511 8.5 18 8.5C23.2489 8.5 27.5 12.7511 27.5 18C27.5 22.1787 24.7972 25.7332 21.0626 27.0019C21.0347 27.0062 21.0142 27.0069 21 27.0065C21 26.8946 21.0014 26.7046 21.0032 26.451C21.0041 26.3218 21.0052 26.1761 21.0062 26.0158C21.0094 25.5371 21.0125 24.9328 21.0125 24.2625C21.0125 23.6766 20.9025 23.1828 20.7185 22.7864C21.616 22.6146 22.5281 22.2981 23.2744 21.6721C24.2766 20.8315 24.9 19.5032 24.9 17.475C24.9 16.3605 24.5406 15.4294 23.9386 14.6777C24.0828 14.1646 24.2288 13.1757 23.7392 11.9518L23.6526 11.7352L23.431 11.6625L23.275 12.1375C23.431 11.6625 23.4305 11.6623 23.43 11.6621L23.429 11.6618L23.427 11.6612L23.4226 11.6598L23.4129 11.6569C23.406 11.6548 23.3983 11.6527 23.3896 11.6505C23.3723 11.646 23.3515 11.6413 23.3272 11.6367C23.2785 11.6276 23.216 11.6193 23.1395 11.6155C22.986 11.6077 22.7787 11.6179 22.5149 11.6731C22.0225 11.776 21.3373 12.0346 20.436 12.6212C19.6566 12.4233 18.8398 12.325 18.025 12.325C17.2098 12.325 16.3926 12.4234 15.6127 12.6215C14.7117 12.0404 14.0275 11.7824 13.5368 11.6781C13.2739 11.6222 13.0676 11.6107 12.915 11.617C12.8389 11.6202 12.7769 11.6278 12.7285 11.6362C12.7043 11.6405 12.6837 11.6449 12.6665 11.6491C12.6579 11.6512 12.6502 11.6532 12.6434 11.6551L12.6338 11.6579L12.6294 11.6592L12.6274 11.6598L12.6264 11.6601C12.6259 11.6602 12.6255 11.6604 12.775 12.1375L12.6255 11.6604L12.3989 11.7314L12.3108 11.9518C11.8211 13.1759 11.9672 14.1649 12.1115 14.6779C11.509 15.432 11.15 16.3725 11.15 17.475C11.15 19.4966 11.7699 20.8244 12.7682 21.6665C13.5126 22.2945 14.4232 22.6134 15.321 22.7862C15.2372 22.9667 15.1686 23.1677 15.1194 23.3886C14.882 23.4694 14.5807 23.5334 14.2739 23.5052C13.8859 23.4696 13.446 23.285 13.0797 22.6693L13.0798 22.6693L13.074 22.66C12.9631 22.4825 12.7432 22.1772 12.4277 21.9123C12.1132 21.6484 11.6625 21.3914 11.105 21.4001ZM11.105 21.4001L11.1125 21.9M11.105 21.4001C11.1049 21.4001 11.1047 21.4001 11.1046 21.4001L11.1125 21.9M11.1125 21.9C10.275 21.9125 10.775 22.375 11.125 22.5625M11.1125 21.9C11.9 21.8875 12.4625 22.625 12.65 22.925L11.125 22.5625M11.125 22.5625C11.55 22.8 12.0375 23.6875 12.15 23.975C12.336 24.4982 12.9113 25.4647 15.0125 25.2251L11.125 22.5625Z" fill="url(#paint1_linear_12_1937)" stroke="url(#paint2_linear_12_1937)"/>
</g>
<defs>
<filter id="filter0_b_12_1937" x="-13.3857" y="-13.3857" width="62.7714" height="62.7714" filterUnits="userSpaceOnUse" color-interpolation-filters="sRGB">
<feFlood flood-opacity="0" result="BackgroundImageFix"/>
<feGaussianBlur in="BackgroundImageFix" stdDeviation="6.69284"/>
<feComposite in2="SourceAlpha" operator="in" result="effect1_backgroundBlur_12_1937"/>
<feBlend mode="normal" in="SourceGraphic" in2="effect1_backgroundBlur_12_1937" result="shape"/>
</filter>
<linearGradient id="paint0_linear_12_1937" x1="2.5412" y1="2.83133" x2="32.6338" y2="35.0073" gradientUnits="userSpaceOnUse">
<stop stop-color="white"/>
<stop offset="1" stop-color="white" stop-opacity="0"/>
</linearGradient>
<linearGradient id="paint1_linear_12_1937" x1="9.41178" y1="9.53416" x2="25.6852" y2="27.3743" gradientUnits="userSpaceOnUse">
<stop stop-color="white"/>
<stop offset="1" stop-color="white" stop-opacity="0"/>
</linearGradient>
<linearGradient id="paint2_linear_12_1937" x1="9.41178" y1="9.53416" x2="25.6852" y2="27.3743" gradientUnits="userSpaceOnUse">
<stop stop-color="white"/>
<stop offset="1" stop-color="white" stop-opacity="0"/>
</linearGradient>
<clipPath id="clip0_12_1937">
<rect width="20" height="20" fill="white" transform="translate(8 8)"/>
</clipPath>
</defs>
</svg>
