<svg width="51" height="50" viewBox="0 0 51 50" fill="none" xmlns="http://www.w3.org/2000/svg">
<g filter="url(#filter0_b_1206_6234)">
<path d="M25.7773 50C39.5845 50 50.7773 38.8071 50.7773 25C50.7773 11.1929 39.5845 0 25.7773 0C11.9702 0 0.777344 11.1929 0.777344 25C0.777344 38.8071 11.9702 50 25.7773 50Z" fill="white" fill-opacity="0.6"/>
</g>
<g clip-path="url(#clip0_1206_6234)">
<path fill-rule="evenodd" clip-rule="evenodd" d="M25.7776 11.1111C18.1039 11.1111 11.8887 17.3264 11.8887 25C11.8887 31.1458 15.8644 36.3368 21.3852 38.1771C22.0796 38.2986 22.3401 37.8819 22.3401 37.5173C22.3401 37.1875 22.3227 36.0937 22.3227 34.9305C18.8331 35.5729 17.9303 34.0798 17.6526 33.2986C17.4963 32.8993 16.8192 31.6666 16.2289 31.3368C15.7428 31.0764 15.0484 30.434 16.2116 30.4166C17.3053 30.3993 18.0866 31.4236 18.347 31.8403C19.597 33.9409 21.5935 33.3507 22.3921 32.9861C22.5137 32.0833 22.8783 31.4757 23.2776 31.1284C20.1873 30.7812 16.9581 29.5833 16.9581 24.2708C16.9581 22.7604 17.4963 21.5104 18.3817 20.5382C18.2428 20.1909 17.7567 18.7673 18.5206 16.8576C18.5206 16.8576 19.6838 16.493 22.3401 18.2812C23.4512 17.9687 24.6317 17.8125 25.8123 17.8125C26.9928 17.8125 28.1734 17.9687 29.2845 18.2812C31.9408 16.4757 33.104 16.8576 33.104 16.8576C33.8678 18.7673 33.3817 20.1909 33.2428 20.5382C34.1283 21.5104 34.6665 22.743 34.6665 24.2708C34.6665 29.6007 31.4199 30.7812 28.3296 31.1284C28.8331 31.5625 29.2671 32.3958 29.2671 33.6979C29.2671 35.5555 29.2498 37.0486 29.2498 37.5173C29.2498 37.8819 29.5102 38.3159 30.2046 38.1771C35.6908 36.3368 39.6665 31.1284 39.6665 25C39.6665 17.3264 33.4512 11.1111 25.7776 11.1111Z" fill="#1C4A3A"/>
</g>
<defs>
<filter id="filter0_b_1206_6234" x="-17.8139" y="-18.5912" width="87.1825" height="87.1825" filterUnits="userSpaceOnUse" color-interpolation-filters="sRGB">
<feFlood flood-opacity="0" result="BackgroundImageFix"/>
<feGaussianBlur in="BackgroundImageFix" stdDeviation="9.29561"/>
<feComposite in2="SourceAlpha" operator="in" result="effect1_backgroundBlur_1206_6234"/>
<feBlend mode="normal" in="SourceGraphic" in2="effect1_backgroundBlur_1206_6234" result="shape"/>
</filter>
<clipPath id="clip0_1206_6234">
<rect width="27.7778" height="27.7778" fill="white" transform="translate(11.8887 11.1111)"/>
</clipPath>
</defs>
</svg>
