<svg width="36" height="37" viewBox="0 0 36 37" fill="none" xmlns="http://www.w3.org/2000/svg">
<rect y="0.987305" width="36" height="36" rx="18" fill="#FF6E99"/>
<g filter="url(#filter0_bii_13_2132)">
<path d="M12.1357 20.7483V14.15C12.1357 10.7469 14.8954 7.9873 18.2984 7.9873C21.7015 7.9873 24.4611 10.7469 24.4611 14.15V20.7465" stroke="url(#paint0_linear_13_2132)" stroke-width="2" stroke-miterlimit="10"/>
</g>
<g filter="url(#filter1_b_13_2132)">
<path d="M26.3896 16.7385H10.2073C8.98826 16.7385 8 17.7268 8 18.9459V28.0195C8 29.2385 8.98826 30.2268 10.2073 30.2268H26.3896C27.6087 30.2268 28.597 29.2385 28.597 28.0195V18.9459C28.597 17.7268 27.6087 16.7385 26.3896 16.7385Z" fill="url(#paint1_linear_13_2132)"/>
<path d="M10.2073 17.2385H26.3896C27.3326 17.2385 28.097 18.0029 28.097 18.9459V28.0195C28.097 28.9624 27.3326 29.7268 26.3896 29.7268H10.2073C9.2644 29.7268 8.5 28.9624 8.5 28.0195V18.9459C8.5 18.0029 9.2644 17.2385 10.2073 17.2385Z" stroke="url(#paint2_linear_13_2132)"/>
</g>
<defs>
<filter id="filter0_bii_13_2132" x="10.45" y="6.30151" width="15.6968" height="15.1326" filterUnits="userSpaceOnUse" color-interpolation-filters="sRGB">
<feFlood flood-opacity="0" result="BackgroundImageFix"/>
<feGaussianBlur in="BackgroundImageFix" stdDeviation="0.342896"/>
<feComposite in2="SourceAlpha" operator="in" result="effect1_backgroundBlur_13_2132"/>
<feBlend mode="normal" in="SourceGraphic" in2="effect1_backgroundBlur_13_2132" result="shape"/>
<feColorMatrix in="SourceAlpha" type="matrix" values="0 0 0 0 0 0 0 0 0 0 0 0 0 0 0 0 0 0 127 0" result="hardAlpha"/>
<feOffset/>
<feGaussianBlur stdDeviation="0.342896"/>
<feComposite in2="hardAlpha" operator="arithmetic" k2="-1" k3="1"/>
<feColorMatrix type="matrix" values="0 0 0 0 1 0 0 0 0 1 0 0 0 0 1 0 0 0 1 0"/>
<feBlend mode="normal" in2="shape" result="effect2_innerShadow_13_2132"/>
<feColorMatrix in="SourceAlpha" type="matrix" values="0 0 0 0 0 0 0 0 0 0 0 0 0 0 0 0 0 0 127 0" result="hardAlpha"/>
<feOffset dy="0.685791"/>
<feGaussianBlur stdDeviation="0.685791"/>
<feComposite in2="hardAlpha" operator="arithmetic" k2="-1" k3="1"/>
<feColorMatrix type="matrix" values="0 0 0 0 1 0 0 0 0 1 0 0 0 0 1 0 0 0 1 0"/>
<feBlend mode="normal" in2="effect2_innerShadow_13_2132" result="effect3_innerShadow_13_2132"/>
</filter>
<filter id="filter1_b_13_2132" x="0.341548" y="9.08007" width="35.9141" height="28.8052" filterUnits="userSpaceOnUse" color-interpolation-filters="sRGB">
<feFlood flood-opacity="0" result="BackgroundImageFix"/>
<feGaussianBlur in="BackgroundImageFix" stdDeviation="3.82923"/>
<feComposite in2="SourceAlpha" operator="in" result="effect1_backgroundBlur_13_2132"/>
<feBlend mode="normal" in="SourceGraphic" in2="effect1_backgroundBlur_13_2132" result="shape"/>
</filter>
<linearGradient id="paint0_linear_13_2132" x1="13.0058" y1="8.99093" x2="23.6911" y2="20.026" gradientUnits="userSpaceOnUse">
<stop stop-color="white"/>
<stop offset="1" stop-color="white" stop-opacity="0"/>
</linearGradient>
<linearGradient id="paint1_linear_13_2132" x1="9.16282" y1="29.4653" x2="20.1306" y2="12.7172" gradientUnits="userSpaceOnUse">
<stop stop-color="white" stop-opacity="0.2"/>
<stop offset="1" stop-color="white" stop-opacity="0.49"/>
</linearGradient>
<linearGradient id="paint2_linear_13_2132" x1="9.45391" y1="17.7994" x2="19.5199" y2="34.2346" gradientUnits="userSpaceOnUse">
<stop stop-color="white"/>
<stop offset="1" stop-color="white" stop-opacity="0"/>
</linearGradient>
</defs>
</svg>
