<svg width="36" height="36" viewBox="0 0 36 36" fill="none" xmlns="http://www.w3.org/2000/svg">
<g filter="url(#filter0_b_12_1925)">
<path d="M18 36C27.9411 36 36 27.9411 36 18C36 8.05888 27.9411 0 18 0C8.05888 0 0 8.05888 0 18C0 27.9411 8.05888 36 18 36Z" fill="#FF6E99"/>
<path d="M35.75 18C35.75 27.8031 27.8031 35.75 18 35.75C8.19695 35.75 0.25 27.8031 0.25 18C0.25 8.19695 8.19695 0.25 18 0.25C27.8031 0.25 35.75 8.19695 35.75 18Z" stroke="url(#paint0_linear_12_1925)" stroke-width="0.5"/>
</g>
<g clip-path="url(#clip0_12_1925)">
<mask id="path-3-inside-1_12_1925" fill="white">
<path fill-rule="evenodd" clip-rule="evenodd" d="M28.0002 10.5904L24.8369 25.9725C24.8369 25.9725 24.3943 27.0395 23.1779 26.5274L18.6773 23.1995L18.6773 23.1995L15.8892 21.0977L15.9009 21.0016C15.9009 21.0016 23.9967 13.9829 24.3285 13.684C24.6603 13.3851 24.5495 13.3211 24.5495 13.3211C24.5714 12.9582 23.9522 13.3211 23.9522 13.3211L13.2246 19.8924L13.2248 19.8931L13.224 19.8928L8.75607 18.4418C8.75607 18.4418 8.07058 18.2069 8.00422 17.6949C7.93786 17.1828 8.77863 16.9057 8.77863 16.9057L26.5403 10.1846C26.5403 10.1846 28.0002 9.56571 28.0002 10.5898V10.5904Z"/>
</mask>
<path fill-rule="evenodd" clip-rule="evenodd" d="M28.0002 10.5904L24.8369 25.9725C24.8369 25.9725 24.3943 27.0395 23.1779 26.5274L18.6773 23.1995L18.6773 23.1995L15.8892 21.0977L15.9009 21.0016C15.9009 21.0016 23.9967 13.9829 24.3285 13.684C24.6603 13.3851 24.5495 13.3211 24.5495 13.3211C24.5714 12.9582 23.9522 13.3211 23.9522 13.3211L13.2246 19.8924L13.2248 19.8931L13.224 19.8928L8.75607 18.4418C8.75607 18.4418 8.07058 18.2069 8.00422 17.6949C7.93786 17.1828 8.77863 16.9057 8.77863 16.9057L26.5403 10.1846C26.5403 10.1846 28.0002 9.56571 28.0002 10.5898V10.5904Z" fill="url(#paint1_linear_12_1925)"/>
<path d="M24.8369 25.9725L25.7606 26.3557L25.7972 26.2675L25.8164 26.174L24.8369 25.9725ZM28.0002 10.5904L28.9797 10.7918L29.0002 10.6922V10.5904H28.0002ZM23.1779 26.5274L22.5834 27.3315L22.6796 27.4027L22.7899 27.4491L23.1779 26.5274ZM18.6773 23.1995L18.0129 22.4521L17.0918 23.2709L18.0827 24.0036L18.6773 23.1995ZM18.6773 23.1995L19.3417 23.9469L20.2541 23.1358L19.2793 22.4009L18.6773 23.1995ZM15.8892 21.0977L14.8965 20.977L14.8269 21.5493L15.2872 21.8962L15.8892 21.0977ZM15.9009 21.0016L15.2458 20.246L14.9547 20.4984L14.9082 20.8809L15.9009 21.0016ZM24.3285 13.684L23.6592 12.941L23.6592 12.941L24.3285 13.684ZM24.5495 13.3211L23.5513 13.2608L23.514 13.8779L24.0493 14.187L24.5495 13.3211ZM23.9522 13.3211L23.4465 12.4583L23.4382 12.4633L23.4299 12.4683L23.9522 13.3211ZM13.2246 19.8924L12.7022 19.0396L12.0355 19.448L12.271 20.1936L13.2246 19.8924ZM13.2248 19.8931L12.8022 20.7994L14.8635 21.7608L14.1784 19.5919L13.2248 19.8931ZM13.224 19.8928L13.6467 18.9865L13.5912 18.9606L13.5329 18.9417L13.224 19.8928ZM8.75607 18.4418L8.43191 19.3878L8.43953 19.3904L8.4472 19.3929L8.75607 18.4418ZM8.00422 17.6949L7.01251 17.8234L8.00422 17.6949ZM8.77863 16.9057L9.09169 17.8554L9.11227 17.8486L9.13254 17.841L8.77863 16.9057ZM26.5403 10.1846L26.8942 11.1199L26.9126 11.113L26.9307 11.1053L26.5403 10.1846ZM25.8164 26.174L28.9797 10.7918L27.0207 10.389L23.8574 25.7711L25.8164 26.174ZM22.7899 27.4491C23.7326 27.8459 24.5286 27.6549 25.0745 27.2337C25.3171 27.0464 25.4816 26.8368 25.5843 26.6806C25.6368 26.6008 25.6765 26.5297 25.7049 26.4744C25.7192 26.4466 25.7309 26.4224 25.74 26.4024C25.7446 26.3925 25.7486 26.3835 25.752 26.3757C25.7537 26.3718 25.7553 26.3682 25.7567 26.3648C25.7574 26.3632 25.7581 26.3616 25.7588 26.36C25.7591 26.3593 25.7594 26.3585 25.7597 26.3578C25.7598 26.3575 25.7601 26.3569 25.7601 26.3567C25.7604 26.3562 25.7606 26.3557 24.8369 25.9725C23.9132 25.5893 23.9134 25.5888 23.9136 25.5883C23.9137 25.5882 23.9139 25.5876 23.9141 25.5873C23.9143 25.5867 23.9146 25.586 23.9149 25.5854C23.9154 25.5841 23.9159 25.5829 23.9164 25.5817C23.9174 25.5794 23.9183 25.5773 23.9191 25.5754C23.9208 25.5716 23.9222 25.5686 23.9232 25.5663C23.9253 25.5618 23.9263 25.5599 23.9261 25.5603C23.9255 25.5614 23.9212 25.5697 23.9131 25.5819C23.8948 25.6097 23.8727 25.6348 23.8526 25.6503C23.8382 25.6614 23.8308 25.6638 23.8196 25.6653C23.8087 25.6668 23.7319 25.6757 23.5659 25.6058L22.7899 27.4491ZM18.0827 24.0036L22.5834 27.3315L23.7725 25.7234L19.2718 22.3955L18.0827 24.0036ZM18.0129 22.4521L18.0129 22.4521L19.3416 23.9469L19.3417 23.9469L18.0129 22.4521ZM15.2872 21.8962L18.0754 23.998L19.2793 22.4009L16.4911 20.2992L15.2872 21.8962ZM14.9082 20.8809L14.8965 20.977L16.8819 21.2184L16.8935 21.1222L14.9082 20.8809ZM23.6592 12.941C23.5025 13.0821 21.4083 14.9006 19.3349 16.6995C18.3023 17.5955 17.28 18.4821 16.5159 19.1447C16.1338 19.476 15.8163 19.7514 15.5943 19.9438C15.4833 20.0401 15.3962 20.1156 15.3368 20.1671C15.3071 20.1928 15.2844 20.2126 15.269 20.2258C15.2614 20.2325 15.2556 20.2375 15.2517 20.2409C15.2497 20.2426 15.2483 20.2439 15.2473 20.2447C15.2468 20.2451 15.2464 20.2454 15.2462 20.2457C15.246 20.2458 15.246 20.2458 15.2459 20.2459C15.2458 20.246 15.2458 20.246 15.9009 21.0016C16.5559 21.7571 16.5559 21.7571 16.556 21.7571C16.5561 21.757 16.5562 21.7569 16.5563 21.7568C16.5565 21.7566 16.5569 21.7563 16.5574 21.7559C16.5584 21.755 16.5598 21.7537 16.5618 21.7521C16.5657 21.7487 16.5715 21.7436 16.5792 21.737C16.5945 21.7237 16.6172 21.704 16.6469 21.6782C16.7063 21.6267 16.7935 21.5512 16.9045 21.4549C17.1265 21.2624 17.4441 20.9871 17.8262 20.6557C18.5904 19.993 19.6128 19.1063 20.6456 18.2102C22.7031 16.425 24.8227 14.5847 24.9978 14.427L23.6592 12.941ZM24.5495 13.3211C24.0493 14.187 24.0479 14.1862 24.0465 14.1854C24.046 14.1851 24.0446 14.1843 24.0437 14.1837C24.0418 14.1826 24.0399 14.1815 24.038 14.1804C24.0342 14.1781 24.0304 14.1758 24.0266 14.1735C24.0189 14.1688 24.0111 14.1639 24.0033 14.1587C23.9875 14.1485 23.9714 14.1373 23.955 14.1251C23.9223 14.1009 23.888 14.0723 23.8537 14.0387C23.7845 13.9709 23.7161 13.8833 23.6628 13.7741C23.5473 13.5373 23.5526 13.3052 23.5951 13.1406C23.6326 12.9953 23.6949 12.9118 23.7049 12.8986C23.7186 12.8805 23.7117 12.8937 23.6592 12.941L24.9978 14.427C25.1868 14.2567 25.4395 13.9976 25.5317 13.6403C25.5879 13.4223 25.5863 13.1555 25.4604 12.8973C25.4019 12.7775 25.3274 12.6826 25.2534 12.6101C25.2167 12.5742 25.1804 12.5439 25.1462 12.5186C25.1291 12.5059 25.1124 12.4943 25.0963 12.4838C25.0882 12.4785 25.0803 12.4735 25.0725 12.4688C25.0686 12.4664 25.0647 12.464 25.0609 12.4618C25.059 12.4606 25.0571 12.4595 25.0552 12.4584C25.0543 12.4579 25.0529 12.457 25.0524 12.4568C25.051 12.4559 25.0496 12.4551 24.5495 13.3211ZM23.9522 13.3211C24.4579 14.1838 24.4577 14.1839 24.4576 14.184C24.4575 14.184 24.4573 14.1841 24.4572 14.1842C24.457 14.1843 24.4568 14.1844 24.4566 14.1846C24.4562 14.1848 24.4558 14.185 24.4555 14.1852C24.4548 14.1856 24.4542 14.1859 24.4538 14.1862C24.4529 14.1867 24.4525 14.1869 24.4526 14.1869C24.4527 14.1868 24.4545 14.1858 24.4578 14.184C24.4645 14.1803 24.4758 14.1744 24.4896 14.1675C24.5037 14.1606 24.5177 14.1542 24.53 14.1491C24.5432 14.1437 24.5481 14.1423 24.5449 14.1432C24.5444 14.1434 24.5174 14.1518 24.4703 14.1566C24.4301 14.1606 24.316 14.1685 24.1697 14.1233C24.0917 14.0991 23.9995 14.0582 23.9073 13.9899C23.8132 13.9202 23.7327 13.832 23.6718 13.7301C23.5512 13.5283 23.5463 13.343 23.5513 13.2608L25.5476 13.3813C25.5581 13.2084 25.5386 12.955 25.3883 12.7037C25.2268 12.4335 24.9838 12.2816 24.761 12.2127C24.401 12.1013 24.0741 12.1966 23.9731 12.2267C23.8215 12.272 23.6887 12.3327 23.6076 12.3725C23.5638 12.3941 23.5269 12.4136 23.4998 12.4284C23.4861 12.4358 23.4747 12.4422 23.4658 12.4473C23.4613 12.4498 23.4574 12.452 23.4542 12.4539C23.4526 12.4548 23.4512 12.4557 23.4499 12.4564C23.4492 12.4568 23.4486 12.4571 23.4481 12.4574C23.4478 12.4576 23.4475 12.4578 23.4473 12.4579C23.4471 12.458 23.447 12.4581 23.4469 12.4581C23.4467 12.4582 23.4465 12.4583 23.9522 13.3211ZM13.7469 20.7451L24.4746 14.1738L23.4299 12.4683L12.7022 19.0396L13.7469 20.7451ZM14.1784 19.5919L14.1781 19.5912L12.271 20.1936L12.2713 20.1944L14.1784 19.5919ZM12.8014 20.799L12.8022 20.7994L13.6475 18.9869L13.6467 18.9865L12.8014 20.799ZM8.4472 19.3929L12.9152 20.8439L13.5329 18.9417L9.06494 17.4907L8.4472 19.3929ZM7.01251 17.8234C7.10097 18.5059 7.58048 18.9081 7.84098 19.0861C7.98919 19.1873 8.12907 19.2592 8.23021 19.3057C8.28188 19.3294 8.32634 19.3479 8.36047 19.3613C8.37761 19.3681 8.39236 19.3736 8.40433 19.378C8.41033 19.3802 8.41565 19.3821 8.42026 19.3837C8.42256 19.3846 8.42469 19.3853 8.42663 19.386C8.4276 19.3863 8.42853 19.3866 8.42941 19.3869C8.42985 19.3871 8.43027 19.3872 8.43069 19.3874C8.4309 19.3875 8.4312 19.3876 8.43131 19.3876C8.43161 19.3877 8.43191 19.3878 8.75607 18.4418C9.08023 17.4958 9.08053 17.4959 9.08082 17.496C9.08091 17.496 9.0812 17.4961 9.08138 17.4962C9.08176 17.4963 9.08213 17.4964 9.08248 17.4966C9.0832 17.4968 9.08387 17.497 9.08451 17.4973C9.0858 17.4977 9.08694 17.4981 9.08794 17.4985C9.08995 17.4992 9.09142 17.4997 9.09237 17.5001C9.09428 17.5008 9.09423 17.5008 9.0925 17.5001C9.08889 17.4987 9.07927 17.4948 9.06564 17.4885C9.03617 17.475 9.00054 17.4561 8.96908 17.4346C8.87024 17.3671 8.97383 17.3959 8.99593 17.5663L7.01251 17.8234ZM8.77863 16.9057C8.46558 15.956 8.46531 15.9561 8.46503 15.9561C8.46494 15.9562 8.46466 15.9563 8.46447 15.9563C8.46409 15.9565 8.46369 15.9566 8.46328 15.9567C8.46246 15.957 8.46159 15.9573 8.46066 15.9576C8.4588 15.9582 8.45672 15.9589 8.45442 15.9597C8.44984 15.9613 8.44439 15.9631 8.43814 15.9653C8.42566 15.9697 8.4099 15.9754 8.39131 15.9823C8.35434 15.9962 8.3052 16.0156 8.24796 16.0406C8.13692 16.0891 7.97909 16.1658 7.81559 16.2737C7.57648 16.4316 6.89823 16.9415 7.01251 17.8234L8.99593 17.5663C9.01897 17.7442 8.95226 17.8786 8.91292 17.934C8.88394 17.9749 8.8724 17.9726 8.91749 17.9428C8.95589 17.9175 9.00411 17.8928 9.04863 17.8734C9.06918 17.8644 9.08521 17.8581 9.09395 17.8549C9.09823 17.8533 9.10046 17.8525 9.10027 17.8525C9.10016 17.8526 9.09943 17.8528 9.09802 17.8533C9.09732 17.8536 9.09644 17.8539 9.09539 17.8542C9.09486 17.8544 9.09429 17.8546 9.09367 17.8548C9.09336 17.8549 9.09305 17.855 9.09271 17.8551C9.09255 17.8551 9.09229 17.8552 9.09221 17.8553C9.09195 17.8553 9.09169 17.8554 8.77863 16.9057ZM26.1864 9.24935L8.42472 15.9704L9.13254 17.841L26.8942 11.1199L26.1864 9.24935ZM29.0002 10.5898C29.0002 10.0651 28.7908 9.55343 28.3041 9.24768C27.8993 8.99333 27.4587 8.98671 27.1973 9.00584C26.9104 9.02685 26.6481 9.09479 26.4749 9.14797C26.3842 9.17581 26.3081 9.20271 26.2529 9.22335C26.2251 9.23373 26.2022 9.2427 26.1849 9.24963C26.1762 9.2531 26.1689 9.25608 26.1631 9.25849C26.1602 9.25969 26.1576 9.26075 26.1554 9.26167C26.1543 9.26212 26.1533 9.26254 26.1524 9.26292C26.152 9.26311 26.1516 9.26329 26.1512 9.26346C26.151 9.26355 26.1507 9.26367 26.1506 9.26371C26.1503 9.26383 26.15 9.26395 26.5403 10.1846C26.9307 11.1053 26.9304 11.1054 26.9301 11.1055C26.9301 11.1056 26.9298 11.1057 26.9296 11.1057C26.9293 11.1059 26.929 11.106 26.9288 11.1061C26.9282 11.1063 26.9277 11.1065 26.9274 11.1067C26.9266 11.107 26.9261 11.1072 26.926 11.1073C26.9256 11.1074 26.9265 11.107 26.9286 11.1062C26.9326 11.1046 26.9411 11.1013 26.9532 11.0967C26.9779 11.0875 27.0158 11.0741 27.062 11.0599C27.1625 11.029 27.2652 11.0062 27.3433 11.0005C27.3803 10.9978 27.3906 11.0006 27.3797 10.9989C27.369 10.9972 27.313 10.987 27.2402 10.9412C27.1588 10.8901 27.0859 10.8126 27.0403 10.72C26.9984 10.6348 27.0002 10.5791 27.0002 10.5898H29.0002ZM29.0002 10.5904V10.5898H27.0002V10.5904H29.0002Z" fill="url(#paint2_linear_12_1925)" mask="url(#path-3-inside-1_12_1925)"/>
</g>
<defs>
<filter id="filter0_b_12_1925" x="-13.3857" y="-13.3857" width="62.7714" height="62.7714" filterUnits="userSpaceOnUse" color-interpolation-filters="sRGB">
<feFlood flood-opacity="0" result="BackgroundImageFix"/>
<feGaussianBlur in="BackgroundImageFix" stdDeviation="6.69284"/>
<feComposite in2="SourceAlpha" operator="in" result="effect1_backgroundBlur_12_1925"/>
<feBlend mode="normal" in="SourceGraphic" in2="effect1_backgroundBlur_12_1925" result="shape"/>
</filter>
<linearGradient id="paint0_linear_12_1925" x1="2.5412" y1="2.83133" x2="32.6338" y2="35.0073" gradientUnits="userSpaceOnUse">
<stop stop-color="white"/>
<stop offset="1" stop-color="white" stop-opacity="0"/>
</linearGradient>
<linearGradient id="paint1_linear_12_1925" x1="9.41225" y1="11.3101" x2="22.953" y2="28.6832" gradientUnits="userSpaceOnUse">
<stop stop-color="white"/>
<stop offset="1" stop-color="white" stop-opacity="0"/>
</linearGradient>
<linearGradient id="paint2_linear_12_1925" x1="9.41225" y1="11.3101" x2="22.953" y2="28.6832" gradientUnits="userSpaceOnUse">
<stop stop-color="white"/>
<stop offset="1" stop-color="white" stop-opacity="0"/>
</linearGradient>
<clipPath id="clip0_12_1925">
<rect width="20" height="16.6667" fill="white" transform="translate(8 10)"/>
</clipPath>
</defs>
</svg>
