<svg width="51" height="50" viewBox="0 0 51 50" fill="none" xmlns="http://www.w3.org/2000/svg">
<g filter="url(#filter0_b_1206_6227)">
<path d="M25.8887 50C39.6958 50 50.8887 38.8071 50.8887 25C50.8887 11.1929 39.6958 0 25.8887 0C12.0816 0 0.888672 11.1929 0.888672 25C0.888672 38.8071 12.0816 50 25.8887 50Z" fill="white" fill-opacity="0.6"/>
</g>
<g clip-path="url(#clip0_1206_6227)">
<path fill-rule="evenodd" clip-rule="evenodd" d="M39.7774 14.709L35.3839 36.073C35.3839 36.073 34.7692 37.5549 33.0798 36.8437L26.8288 32.2216L26.8289 32.2216L22.9565 29.3024L22.9727 29.1689C22.9727 29.1689 34.2169 19.4207 34.6778 19.0056C35.1386 18.5904 34.9847 18.5016 34.9847 18.5016C35.0151 17.9975 34.1552 18.5016 34.1552 18.5016L19.2557 27.6284L19.256 27.6294L19.2549 27.6289L13.0494 25.6137C13.0494 25.6137 12.0973 25.2874 12.0052 24.5763C11.913 23.8651 13.0808 23.4802 13.0808 23.4802L37.7498 14.1454C37.7498 14.1454 39.7774 13.2858 39.7774 14.7081V14.709Z" fill="#1C4A3A"/>
</g>
<defs>
<filter id="filter0_b_1206_6227" x="-17.7026" y="-18.5912" width="87.1825" height="87.1825" filterUnits="userSpaceOnUse" color-interpolation-filters="sRGB">
<feFlood flood-opacity="0" result="BackgroundImageFix"/>
<feGaussianBlur in="BackgroundImageFix" stdDeviation="9.29561"/>
<feComposite in2="SourceAlpha" operator="in" result="effect1_backgroundBlur_1206_6227"/>
<feBlend mode="normal" in="SourceGraphic" in2="effect1_backgroundBlur_1206_6227" result="shape"/>
</filter>
<clipPath id="clip0_1206_6227">
<rect width="27.7778" height="23.1481" fill="white" transform="translate(12 13.8889)"/>
</clipPath>
</defs>
</svg>
