<svg width="50" height="50" viewBox="0 0 50 50" fill="none" xmlns="http://www.w3.org/2000/svg">
<g filter="url(#filter0_b_1206_6219)">
<path d="M25 50C38.8071 50 50 38.8071 50 25C50 11.1929 38.8071 0 25 0C11.1929 0 0 11.1929 0 25C0 38.8071 11.1929 50 25 50Z" fill="white" fill-opacity="0.6"/>
</g>
<path fill-rule="evenodd" clip-rule="evenodd" d="M27.3276 23.0572L37.5 37.5H30.137L23.2389 27.7063L14.6243 37.4993H12.5L22.2915 26.3621L12.5289 12.5H19.8919L26.3805 21.7121L32.6707 14.5574L34.4892 12.5H36.6135L27.3276 23.0572ZM15.697 14.1276L31.0121 35.8722L34.3317 35.872L19.0166 14.1276H15.697Z" fill="#1C4A3A"/>
<defs>
<filter id="filter0_b_1206_6219" x="-18.5912" y="-18.5912" width="87.1825" height="87.1825" filterUnits="userSpaceOnUse" color-interpolation-filters="sRGB">
<feFlood flood-opacity="0" result="BackgroundImageFix"/>
<feGaussianBlur in="BackgroundImageFix" stdDeviation="9.29561"/>
<feComposite in2="SourceAlpha" operator="in" result="effect1_backgroundBlur_1206_6219"/>
<feBlend mode="normal" in="SourceGraphic" in2="effect1_backgroundBlur_1206_6219" result="shape"/>
</filter>
</defs>
</svg>
