<svg width="43" height="43" viewBox="0 0 43 43" fill="none" xmlns="http://www.w3.org/2000/svg">
<g clip-path="url(#clip0_93_1869)">
<path fill-rule="evenodd" clip-rule="evenodd" d="M21.5001 9.55566C14.9008 9.55566 9.55566 14.9008 9.55566 21.5001C9.55566 26.7855 12.9748 31.2498 17.7227 32.8324C18.3199 32.9369 18.5439 32.5786 18.5439 32.265C18.5439 31.9814 18.5289 31.0407 18.5289 30.0404C15.5279 30.5928 14.7515 29.3088 14.5126 28.6369C14.3782 28.2935 13.7959 27.2334 13.2883 26.9498C12.8702 26.7258 12.273 26.1734 13.2734 26.1584C14.214 26.1435 14.8859 27.0244 15.1098 27.3827C16.1848 29.1893 17.9018 28.6817 18.5887 28.3682C18.6932 27.5918 19.0067 27.0692 19.3501 26.7706C16.6925 26.472 13.9154 25.4418 13.9154 20.873C13.9154 19.5741 14.3782 18.4991 15.1397 17.663C15.0202 17.3643 14.6022 16.14 15.2591 14.4977C15.2591 14.4977 16.2595 14.1841 18.5439 15.722C19.4994 15.4532 20.5147 15.3189 21.53 15.3189C22.5452 15.3189 23.5605 15.4532 24.5161 15.722C26.8005 14.1692 27.8008 14.4977 27.8008 14.4977C28.4577 16.14 28.0397 17.3643 27.9202 17.663C28.6817 18.4991 29.1446 19.5591 29.1446 20.873C29.1446 25.4567 26.3525 26.472 23.6949 26.7706C24.1279 27.1439 24.5012 27.8605 24.5012 28.9803C24.5012 30.5779 24.4862 31.8619 24.4862 32.265C24.4862 32.5786 24.7102 32.9518 25.3074 32.8324C30.0255 31.2498 33.4446 26.7706 33.4446 21.5001C33.4446 14.9008 28.0994 9.55566 21.5001 9.55566Z" fill="#F2D1E4"/>
</g>
<defs>
<clipPath id="clip0_93_1869">
<rect width="23.8889" height="23.8889" fill="white" transform="translate(9.55566 9.55566)"/>
</clipPath>
</defs>
</svg>
