<svg xmlns="http://www.w3.org/2000/svg" width="36" height="36" viewBox="0 0 36 36" fill="none">
  <path d="M26.6354 26.0618L20.269 17.0235L19.5493 16.0013L14.9952 9.53581L14.6179 9H9.02197L10.3868 10.9382L16.4419 19.5357L17.1617 20.5569L22.0268 27.4648L22.4043 28.0002H28.0002L26.6354 26.062V26.0618ZM23.0693 26.763L18.0148 19.5864L17.295 18.5648L11.4298 10.237H13.9527L18.696 16.9718L19.4157 17.9933L25.5923 26.7629H23.0693V26.763Z" fill="#F2D1E4"/>
  <path d="M17.295 18.5645L18.0147 19.586L17.1614 20.5565L10.6145 27.9998H9L16.4417 19.5354L17.295 18.5645Z" fill="#F2D1E4"/>
  <path d="M27.3267 9L20.2693 17.0235L19.416 17.9933L18.6963 16.9717L19.5496 16.0013L24.3301 10.5637L25.7122 9H27.3267Z" fill="#F2D1E4"/>
</svg>