<svg width="588" height="78" viewBox="0 0 588 78" fill="none" xmlns="http://www.w3.org/2000/svg">
<path d="M249.14 0H301.199V13.2874H265.209V32.139H298.469V45.3641H265.209V64.2676H301.314V77.555H249.15V0H249.14Z" fill="black"/>
<path d="M19.817 0L41.3987 52.5477H42.3122L63.842 0H67.4234V26.7306L47.1808 77.1813H36.4159L16.2252 26.6164H15.5816V77.555H0V0H19.817Z" fill="black"/>
<path d="M110.172 0L128.058 33.4262H128.753L146.65 0H164.754L136.425 49.9213V77.555H120.407V49.9213L92.1299 0H110.182H110.172Z" fill="black"/>
<path d="M174.927 0H238.447V13.2874H214.665H198.762H174.927V0Z" fill="black"/>
<path d="M310.012 0H373.532V13.2874H349.75V77.5654H333.847V13.2874H310.012V0Z" fill="black"/>
<path d="M383.654 0H399.724V32.139H433.358V0H449.427V77.555H433.358V45.3641H399.724V77.555H383.654V0Z" fill="black"/>
<path d="M462.548 0H514.608V13.2874H478.617V32.139H511.877V45.3641H478.617V64.2676H514.722V77.555H462.558V0H462.548Z" fill="black"/>
<path d="M527.097 0H557.409C563.263 0 568.267 1.0277 572.43 3.0831C576.592 5.1385 579.759 8.07627 581.939 11.8964C584.118 15.7165 585.208 20.1803 585.208 25.2877C585.208 30.395 584.108 34.755 581.918 38.4921C579.717 42.2188 576.499 45.0839 572.253 47.0666C568.007 49.0493 562.931 50.0355 557.045 50.0355H536.533V36.9142H554.533C557.751 36.9142 560.388 36.4782 562.464 35.6062C564.54 34.7342 566.087 33.4366 567.125 31.7238C568.163 30.0109 568.682 27.8725 568.682 25.298C568.682 22.7236 568.163 20.4398 567.125 18.6543C566.087 16.8688 564.52 15.5193 562.412 14.6058C560.305 13.6923 557.658 13.2355 554.481 13.2355H543.177V77.5654H527.107V0H527.097ZM587.99 77.555H570.104L551.305 42.3122H568.713L588.001 77.555H587.99Z" fill="black"/>
<path d="M69.5518 10.522L69.5518 66.6289L69.5518 77.8562L85.123 77.8562L85.123 67.3343L85.123 11.2274L85.123 0.00011376L69.5518 0.000114441L69.5518 10.522Z" fill="url(#paint0_linear_62_2250)"/>
<path d="M198.274 23.9888L198.274 68.8744L198.274 77.8562L213.845 77.8562L213.845 69.4387L213.845 24.5531L213.845 15.5713L198.274 15.5713L198.274 23.9888Z" fill="url(#paint1_linear_62_2250)"/>
<defs>
<linearGradient id="paint0_linear_62_2250" x1="76.8183" y1="87.1989" x2="45.8591" y2="74.2986" gradientUnits="userSpaceOnUse">
<stop stop-color="#FF8CCF"/>
<stop offset="1" stop-color="#F43A81"/>
</linearGradient>
<linearGradient id="paint1_linear_62_2250" x1="196.412" y1="18.5912" x2="218.573" y2="76.3676" gradientUnits="userSpaceOnUse">
<stop stop-color="#FC954B"/>
<stop offset="1" stop-color="#F45DD3"/>
</linearGradient>
</defs>
</svg>