<svg width="566" height="130" viewBox="0 0 566 130" fill="none" xmlns="http://www.w3.org/2000/svg">
<path d="M109.713 91.52C109.713 93.3499 111.197 94.8334 113.027 94.8334C114.857 94.8334 116.34 93.3499 116.34 91.52H109.713ZM127.385 91.52C127.385 93.3499 128.868 94.8334 130.698 94.8334C132.528 94.8334 134.011 93.3499 134.011 91.52H127.385ZM127.385 68.3267C127.385 70.1566 128.868 71.64 130.698 71.64C132.528 71.64 134.011 70.1566 134.011 68.3267H127.385ZM130.698 12H134.011V4.0009L128.355 9.65712L130.698 12ZM43.4467 24.1489L43.8707 20.8628L36.4674 19.9075L40.7252 26.0388L43.4467 24.1489ZM71.0578 63.9089L70.6661 67.199C71.9611 67.3532 73.226 66.7334 73.8977 65.6157C74.5695 64.4979 74.5231 63.0901 73.7793 62.019L71.0578 63.9089ZM47.8645 115.818L44.6786 114.908L41.6844 125.387L50.0047 118.347L47.8645 115.818ZM80.9978 106.982H84.3112V100.356H80.9978V106.982ZM104.191 58.3867L101.715 60.5879C102.543 61.52 103.825 61.9079 105.031 61.5918C106.237 61.2757 107.164 60.3091 107.429 59.0905L104.191 58.3867ZM71.0578 88.2067L72.8578 90.9885L79.176 86.9002L71.8942 85.0006L71.0578 88.2067ZM7 97.0423L3.98661 95.6647L0.545218 103.193L8.23054 100.119L7 97.0423ZM103.087 104.773V101.46H96.46V104.773H103.087ZM134.011 104.773V101.46H127.384V104.773H134.011ZM109.713 82.6845V91.52H116.34V82.6845H109.713ZM127.385 82.6845V91.52H134.011V82.6845H127.385ZM134.011 68.3267V12H127.385V68.3267H134.011ZM40.7252 26.0388L68.3363 65.7988L73.7793 62.019L46.1682 22.259L40.7252 26.0388ZM47.8645 115.818C50.0047 118.347 50.004 118.348 50.0033 118.348C50.0031 118.349 50.0025 118.349 50.0022 118.349C50.0015 118.35 50.0011 118.35 50.0009 118.35C50.0005 118.351 50.001 118.35 50.0023 118.349C50.0049 118.347 50.0109 118.342 50.0204 118.334C50.0392 118.319 50.0715 118.292 50.1171 118.255C50.2081 118.181 50.3519 118.066 50.5459 117.916C50.9341 117.616 51.5225 117.175 52.2917 116.641C53.8322 115.57 56.0861 114.132 58.8995 112.693C64.5526 109.801 72.3084 106.982 80.9978 106.982V100.356C70.9117 100.356 62.1008 103.612 55.8812 106.794C52.7582 108.392 50.2491 109.991 48.5108 111.198C47.6406 111.803 46.9606 112.311 46.4903 112.675C46.255 112.858 46.072 113.004 45.9436 113.108C45.8793 113.16 45.8288 113.201 45.7921 113.232C45.7738 113.247 45.7589 113.259 45.7476 113.269C45.742 113.274 45.7372 113.278 45.7333 113.281C45.7313 113.282 45.7296 113.284 45.7281 113.285C45.7274 113.286 45.7264 113.287 45.726 113.287C45.7251 113.288 45.7243 113.288 47.8645 115.818ZM128.355 9.65712C117.5 20.512 110.668 32.4822 106.549 41.7125C104.488 46.334 103.097 50.2882 102.219 53.1026C101.78 54.5104 101.468 55.635 101.263 56.4175C101.161 56.8088 101.086 57.1147 101.035 57.328C101.01 57.4347 100.991 57.5182 100.977 57.5776C100.97 57.6073 100.965 57.631 100.961 57.6486C100.959 57.6574 100.957 57.6646 100.956 57.6704C100.956 57.6732 100.955 57.6757 100.955 57.6778C100.954 57.6788 100.954 57.6801 100.954 57.6806C100.954 57.6818 100.953 57.6828 104.191 58.3867C107.429 59.0905 107.429 59.0914 107.429 59.0922C107.428 59.0923 107.428 59.093 107.428 59.0933C107.428 59.0938 107.428 59.094 107.428 59.0937C107.428 59.0933 107.429 59.0913 107.429 59.0878C107.431 59.0808 107.434 59.0677 107.438 59.0487C107.447 59.0108 107.461 58.9491 107.481 58.8645C107.522 58.6955 107.586 58.4352 107.675 58.0909C107.855 57.4023 108.139 56.3784 108.545 55.0768C109.358 52.4725 110.659 48.7647 112.601 44.4125C116.49 35.6956 122.911 24.4724 133.041 14.3429L128.355 9.65712ZM104.191 58.3867C106.668 56.1854 106.667 56.1846 106.666 56.1837C106.666 56.1833 106.665 56.1822 106.664 56.1813C106.662 56.1795 106.66 56.1772 106.658 56.1745C106.653 56.169 106.646 56.1618 106.638 56.1527C106.622 56.1346 106.599 56.1095 106.57 56.0774C106.512 56.0133 106.429 55.9216 106.32 55.804C106.103 55.5688 105.787 55.23 105.375 54.8012C104.551 53.9438 103.345 52.7252 101.795 51.2544C98.696 48.315 94.2061 44.3556 88.6189 40.2536C77.4932 32.0853 61.7749 23.173 43.8707 20.8628L43.0227 27.435C59.3563 29.5425 74.0102 37.7491 84.6973 45.5953C90.0165 49.5005 94.2931 53.2722 97.2343 56.0622C98.7037 57.456 99.8365 58.6016 100.596 59.3922C100.976 59.7874 101.262 60.0936 101.45 60.2975C101.544 60.3994 101.613 60.4756 101.658 60.5246C101.68 60.5491 101.696 60.5668 101.705 60.5774C101.71 60.5827 101.713 60.5863 101.715 60.588C101.716 60.5889 101.716 60.5893 101.716 60.5893C101.716 60.5893 101.716 60.589 101.716 60.589C101.715 60.5885 101.715 60.5879 104.191 58.3867ZM71.0578 88.2067C69.2579 85.4249 69.2571 85.4254 69.2563 85.4259C69.256 85.4261 69.2551 85.4267 69.2544 85.4271C69.253 85.4281 69.2513 85.4292 69.2493 85.4305C69.2453 85.4331 69.2401 85.4364 69.2338 85.4405C69.2213 85.4487 69.2043 85.4599 69.1829 85.4739C69.1401 85.5021 69.0798 85.542 69.003 85.5933C68.8496 85.6961 68.6301 85.8447 68.3529 86.0371C67.7987 86.4219 67.0123 86.9825 66.0591 87.7019C64.156 89.1382 61.5719 91.2196 58.8391 93.8086C53.4575 98.9069 47.1345 106.312 44.6786 114.908L51.0503 116.728C53.0123 109.861 58.2859 103.461 63.3965 98.6192C65.9099 96.2382 68.2957 94.316 70.0511 92.9912C70.9272 92.33 71.6421 91.8207 72.1319 91.4807C72.3767 91.3107 72.565 91.1833 72.6887 91.1005C72.7506 91.0591 72.7963 91.0289 72.8248 91.0101C72.8391 91.0007 72.849 90.9942 72.8546 90.9906C72.8573 90.9888 72.859 90.9877 72.8595 90.9873C72.8598 90.9872 72.8598 90.9872 72.8595 90.9874C72.8594 90.9874 72.8589 90.9877 72.8589 90.9878C72.8584 90.9881 72.8578 90.9885 71.0578 88.2067ZM7 97.0423C8.23054 100.119 8.23013 100.119 8.22986 100.119C8.22996 100.119 8.22984 100.119 8.23005 100.119C8.23047 100.119 8.23148 100.118 8.23307 100.118C8.23624 100.116 8.24175 100.114 8.24955 100.111C8.26515 100.105 8.28995 100.095 8.32376 100.082C8.39137 100.055 8.49499 100.015 8.63302 99.9615C8.90911 99.8549 9.32277 99.6974 9.86136 99.4979C10.9388 99.0988 12.5148 98.5325 14.4887 97.8718C18.4397 96.5491 23.9667 94.8539 30.2658 93.3638C43.0086 90.3494 58.3489 88.3155 70.2215 91.4127L71.8942 85.0006C58.3645 81.4712 41.6759 83.8551 28.7403 86.9151C22.2003 88.4622 16.4757 90.2185 12.385 91.5879C10.338 92.2732 8.69562 92.8631 7.55983 93.2837C6.99182 93.4941 6.55018 93.6623 6.24762 93.779C6.09633 93.8374 5.97979 93.8829 5.89957 93.9144C5.85946 93.9302 5.82843 93.9425 5.80668 93.9511C5.79581 93.9554 5.78725 93.9588 5.78104 93.9613C5.77793 93.9625 5.77541 93.9635 5.77348 93.9643C5.77252 93.9647 5.77151 93.9651 5.77103 93.9653C5.77017 93.9656 5.76946 93.9659 7 97.0423ZM10.0134 98.4198C18.2984 80.2964 33.2761 72.4899 46.4592 69.1942C53.0594 67.5441 59.1507 67.0457 63.5956 66.9628C65.8136 66.9214 67.6094 66.9837 68.8385 67.0549C69.4526 67.0905 69.9243 67.1283 70.2352 67.1563C70.3906 67.1703 70.5057 67.1819 70.5783 67.1895C70.6146 67.1933 70.6403 67.1961 70.655 67.1978C70.6624 67.1986 70.667 67.1991 70.6689 67.1993C70.6698 67.1995 70.6701 67.1995 70.6696 67.1994C70.6694 67.1994 70.6685 67.1993 70.6684 67.1993C70.6674 67.1992 70.6661 67.199 71.0578 63.9089C71.4495 60.6188 71.4479 60.6186 71.4462 60.6184C71.4454 60.6183 71.4434 60.6181 71.4418 60.6179C71.4385 60.6175 71.4345 60.6171 71.4298 60.6165C71.4204 60.6154 71.4082 60.614 71.3932 60.6123C71.3632 60.609 71.3221 60.6045 71.2701 60.599C71.1661 60.5881 71.0186 60.5734 70.83 60.5564C70.4528 60.5224 69.9105 60.4793 69.2218 60.4393C67.845 60.3596 65.8789 60.2924 63.472 60.3373C58.6672 60.4269 52.0573 60.964 44.852 62.7653C30.4239 66.3724 13.3728 75.1325 3.98661 95.6647L10.0134 98.4198ZM96.46 104.773C96.46 110.284 98.9236 114.55 102.597 117.349C106.179 120.078 110.789 121.34 115.236 121.34C119.682 121.34 124.292 120.078 127.874 117.349C131.548 114.55 134.011 110.284 134.011 104.773H127.384C127.384 108.098 125.982 110.459 123.858 112.078C121.641 113.767 118.52 114.713 115.236 114.713C111.951 114.713 108.83 113.767 106.613 112.078C104.489 110.459 103.087 108.098 103.087 104.773H96.46Z" fill="#1C4A3A"/>
<g clip-path="url(#clip0_1171_3347)">
<path d="M186.072 115.111H176.433L188.817 87.3592L162 43.4315H171.747L193.229 77.4328L209.876 43.4315H219.462L186.072 115.111Z" fill="#1C4A3A"/>
<path d="M280.154 97.2855H272.4L272.076 88.5612C270.102 91.7206 267.499 94.144 264.268 95.8315C261.072 97.5189 257.285 98.3626 252.905 98.3626C245.76 98.3626 240.105 96.2085 235.941 91.9001C231.812 87.5559 229.748 81.632 229.748 74.1283V43.4315H238.58V73.4821C238.58 78.5802 240.016 82.6552 242.888 85.7069C245.796 88.7586 249.655 90.2845 254.466 90.2845C259.493 90.2845 263.55 88.633 266.637 85.3299C269.761 82.0269 271.323 77.7186 271.323 72.405V43.4315H280.154V97.2855Z" fill="#1C4A3A"/>
<path d="M341.601 89.5306C338.98 92.3669 335.875 94.5569 332.285 96.1007C328.694 97.6087 324.835 98.3626 320.706 98.3626C315.357 98.3626 310.546 97.1419 306.273 94.7005C302.037 92.2592 298.68 88.9202 296.203 84.6837C293.761 80.4472 292.541 75.6721 292.541 70.3585C292.541 65.009 293.761 60.234 296.203 56.0334C298.68 51.7969 302.037 48.4579 306.273 46.0165C310.546 43.5751 315.357 42.3545 320.706 42.3545C324.799 42.3545 328.641 43.1084 332.231 44.6163C335.821 46.1242 338.927 48.2963 341.547 51.1327L336.27 56.6796C334.367 54.6691 332.087 53.1253 329.43 52.0482C326.81 50.9711 324.027 50.4326 321.083 50.4326C317.313 50.4326 313.956 51.2942 311.013 53.0175C308.104 54.705 305.807 57.0386 304.119 60.0186C302.468 62.9985 301.642 66.4272 301.642 70.3047C301.642 74.1822 302.468 77.6288 304.119 80.6446C305.807 83.6605 308.104 86.03 311.013 87.7534C313.956 89.4408 317.313 90.2845 321.083 90.2845C324.027 90.2845 326.827 89.746 329.484 88.6689C332.141 87.5559 334.403 86.0121 336.27 84.0374L341.601 89.5306Z" fill="#1C4A3A"/>
<path d="M398.794 89.5306C396.173 92.3669 393.067 94.5569 389.477 96.1007C385.887 97.6087 382.027 98.3626 377.898 98.3626C372.549 98.3626 367.738 97.1419 363.466 94.7005C359.229 92.2592 355.872 88.9202 353.395 84.6837C350.954 80.4472 349.733 75.6721 349.733 70.3585C349.733 65.009 350.954 60.234 353.395 56.0334C355.872 51.7969 359.229 48.4579 363.466 46.0165C367.738 43.5751 372.549 42.3545 377.898 42.3545C381.991 42.3545 385.833 43.1084 389.423 44.6163C393.013 46.1242 396.119 48.2963 398.74 51.1327L393.462 56.6796C391.559 54.6691 389.28 53.1253 386.623 52.0482C384.002 50.9711 381.219 50.4326 378.275 50.4326C374.506 50.4326 371.149 51.2942 368.205 53.0175C365.297 54.705 362.999 57.0386 361.312 60.0186C359.66 62.9985 358.834 66.4272 358.834 70.3047C358.834 74.1822 359.66 77.6288 361.312 80.6446C362.999 83.6605 365.297 86.03 368.205 87.7534C371.149 89.4408 374.506 90.2845 378.275 90.2845C381.219 90.2845 384.02 89.746 386.677 88.6689C389.333 87.5559 391.595 86.0121 393.462 84.0374L398.794 89.5306Z" fill="#1C4A3A"/>
<path d="M454.694 97.2855H447.1L446.508 90.1768C444.533 92.7259 442.02 94.7364 438.968 96.2084C435.917 97.6446 432.506 98.3626 428.736 98.3626C424.859 98.3626 421.394 97.6087 418.342 96.1007C415.291 94.5569 412.885 92.4566 411.126 89.7998C409.403 87.143 408.541 84.1272 408.541 80.7523C408.541 77.198 409.475 74.0745 411.341 71.3818C413.244 68.6532 415.811 66.5169 419.043 64.9731C422.31 63.4293 426.008 62.6574 430.136 62.6574C432.829 62.6574 435.576 62.9985 438.376 63.6806C441.176 64.3269 443.672 65.2244 445.862 66.3733V64.1115C445.862 61.2393 445.144 58.7979 443.707 56.7873C442.271 54.7409 440.351 53.1791 437.945 52.102C435.54 50.989 432.883 50.4326 429.975 50.4326C427.462 50.4326 424.895 50.8993 422.274 51.8328C419.653 52.7303 417.14 54.1305 414.734 56.0334L411.826 48.44C414.95 46.4294 418.235 44.9215 421.681 43.9162C425.128 42.875 428.539 42.3545 431.914 42.3545C436.581 42.3545 440.602 43.3059 443.977 45.2087C447.387 47.0757 450.026 49.7504 451.893 53.233C453.76 56.6796 454.694 60.7725 454.694 65.5117V97.2855ZM430.298 90.2845C433.062 90.2845 435.594 89.7101 437.891 88.5612C440.189 87.4123 442.056 85.7608 443.492 83.6066C444.928 81.4165 445.718 78.8316 445.862 75.8516V74.9361C443.887 73.3923 441.661 72.2075 439.184 71.3818C436.742 70.5201 434.247 70.0893 431.698 70.0893C427.713 70.0893 424.374 71.0586 421.681 72.9974C419.025 74.9361 417.696 77.3955 417.696 80.3754C417.696 82.2423 418.235 83.9297 419.312 85.4377C420.425 86.9456 421.933 88.1303 423.836 88.992C425.738 89.8537 427.892 90.2845 430.298 90.2845Z" fill="#1C4A3A"/>
<path d="M503.812 97.2855H494.98V51.3481H485.556V43.4315H494.98V31.8529C494.98 28.514 495.68 25.57 497.081 23.0209C498.517 20.4718 500.491 18.4792 503.004 17.0431C505.553 15.607 508.479 14.8889 511.783 14.8889C513.829 14.8889 515.875 15.1761 517.922 15.7506C520.004 16.2891 522.033 17.1328 524.007 18.2817L520.614 25.2289C519.394 24.439 518.155 23.8466 516.899 23.4517C515.642 23.0209 514.385 22.8055 513.129 22.8055C510.364 22.8055 508.12 23.8107 506.397 25.8213C504.674 27.7959 503.812 30.3809 503.812 33.5763V43.4315H520.453V51.3481H503.812V97.2855Z" fill="#1C4A3A"/>
<path d="M540.594 97.2855H531.762V43.4315H540.594V97.2855Z" fill="#1C4A3A"/>
<path d="M531.762 24.4922V33.3156H540.594V24.4922H531.762Z" fill="#1C4A3A"/>
<path d="M467.855 90.668V99.4914H476.679V90.668H467.855Z" fill="#1C4A3A"/>
</g>
<defs>
<clipPath id="clip0_1171_3347">
<rect width="404" height="100.222" fill="white" transform="translate(162 14.8889)"/>
</clipPath>
</defs>
</svg>
