<svg width="555" height="121" viewBox="0 0 555 121" fill="none" xmlns="http://www.w3.org/2000/svg">
<path d="M95.84 4.76V89H75.32V38.48L56.48 89H39.92L20.96 38.36V89H0.44V4.76H24.68L48.32 63.08L71.72 4.76H95.84ZM178.996 22.04L136.996 120.8H114.916L130.276 86.72L103.036 22.04H125.956L141.436 63.92L156.796 22.04H178.996ZM223.737 71.6V89H213.297C205.857 89 200.057 87.2 195.897 83.6C191.737 79.92 189.657 73.96 189.657 65.72V39.08H181.497V22.04H189.657V5.72H210.177V22.04H223.617V39.08H210.177V65.96C210.177 67.96 210.657 69.4 211.617 70.28C212.577 71.16 214.177 71.6 216.417 71.6H223.737ZM298.287 54.44C298.287 56.36 298.167 58.36 297.927 60.44H251.487C251.807 64.6 253.127 67.8 255.447 70.04C257.847 72.2 260.767 73.28 264.207 73.28C269.327 73.28 272.887 71.12 274.887 66.8H296.727C295.607 71.2 293.567 75.16 290.607 78.68C287.727 82.2 284.087 84.96 279.687 86.96C275.287 88.96 270.367 89.96 264.927 89.96C258.367 89.96 252.527 88.56 247.407 85.76C242.287 82.96 238.287 78.96 235.407 73.76C232.527 68.56 231.087 62.48 231.087 55.52C231.087 48.56 232.487 42.48 235.287 37.28C238.167 32.08 242.167 28.08 247.287 25.28C252.407 22.48 258.287 21.08 264.927 21.08C271.407 21.08 277.167 22.44 282.207 25.16C287.247 27.88 291.167 31.76 293.967 36.8C296.847 41.84 298.287 47.72 298.287 54.44ZM277.287 49.04C277.287 45.52 276.087 42.72 273.687 40.64C271.287 38.56 268.287 37.52 264.687 37.52C261.247 37.52 258.327 38.52 255.927 40.52C253.607 42.52 252.167 45.36 251.607 49.04H277.287ZM346.432 71.6V89H335.992C328.552 89 322.752 87.2 318.592 83.6C314.432 79.92 312.352 73.96 312.352 65.72V39.08H304.192V22.04H312.352V5.72H332.872V22.04H346.312V39.08H332.872V65.96C332.872 67.96 333.352 69.4 334.312 70.28C335.272 71.16 336.872 71.6 339.112 71.6H346.432ZM399.022 21.32C406.702 21.32 412.862 23.88 417.502 29C422.142 34.04 424.462 41 424.462 49.88V89H404.062V52.64C404.062 48.16 402.902 44.68 400.582 42.2C398.262 39.72 395.142 38.48 391.222 38.48C387.302 38.48 384.182 39.72 381.862 42.2C379.542 44.68 378.382 48.16 378.382 52.64V89H357.862V0.199999H378.382V31.04C380.462 28.08 383.302 25.72 386.902 23.96C390.502 22.2 394.542 21.32 399.022 21.32ZM501.841 54.44C501.841 56.36 501.721 58.36 501.481 60.44H455.041C455.361 64.6 456.681 67.8 459.001 70.04C461.401 72.2 464.321 73.28 467.761 73.28C472.881 73.28 476.441 71.12 478.441 66.8H500.281C499.161 71.2 497.121 75.16 494.161 78.68C491.281 82.2 487.641 84.96 483.241 86.96C478.841 88.96 473.921 89.96 468.481 89.96C461.921 89.96 456.081 88.56 450.961 85.76C445.841 82.96 441.841 78.96 438.961 73.76C436.081 68.56 434.641 62.48 434.641 55.52C434.641 48.56 436.041 42.48 438.841 37.28C441.721 32.08 445.721 28.08 450.841 25.28C455.961 22.48 461.841 21.08 468.481 21.08C474.961 21.08 480.721 22.44 485.761 25.16C490.801 27.88 494.721 31.76 497.521 36.8C500.401 41.84 501.841 47.72 501.841 54.44ZM480.841 49.04C480.841 45.52 479.641 42.72 477.241 40.64C474.841 38.56 471.841 37.52 468.241 37.52C464.801 37.52 461.881 38.52 459.481 40.52C457.161 42.52 455.721 45.36 455.161 49.04H480.841ZM533.187 33.2C535.587 29.52 538.587 26.64 542.187 24.56C545.787 22.4 549.787 21.32 554.187 21.32V43.04H548.547C543.427 43.04 539.587 44.16 537.027 46.4C534.467 48.56 533.187 52.4 533.187 57.92V89H512.667V22.04H533.187V33.2Z" fill="black"/>
</svg>