<svg xmlns="http://www.w3.org/2000/svg" width="110" height="110" viewBox="0 0 110 110" fill="none">
  <g clip-path="url(#clip0_1229_8607)">
    <path d="M85.0889 77.0043V79.5878H90.2559V77.0043H85.0889ZM98.8676 77.0043C98.8676 78.4311 100.024 79.5878 101.451 79.5878C102.878 79.5878 104.035 78.4311 104.035 77.0043H98.8676ZM98.8676 58.9197V61.5032H104.035V58.9197H98.8676ZM101.451 15H104.035V8.76285L99.6243 13.1732L101.451 15ZM33.4186 24.4729L33.7493 21.9106L27.9767 21.1658L31.2966 25.9465L33.4186 24.4729ZM54.9479 55.475L54.6425 58.0404C55.6522 58.1606 56.6385 57.6774 57.1623 56.8058C57.6861 55.9343 57.6499 54.8366 57.0699 54.0014L54.9479 55.475ZM36.8633 95.95L34.3792 95.2403L32.0445 103.412L38.5321 97.9223L36.8633 95.95ZM62.6984 89.0607H65.282V83.8937H62.6984V89.0607ZM80.783 51.1692L78.8521 52.8856C79.4981 53.6123 80.4974 53.9148 81.4379 53.6683C82.3785 53.4218 83.101 52.6681 83.3076 51.718L80.783 51.1692ZM54.9479 74.4208L56.3514 76.5898L61.2779 73.4021L55.6 71.9209L54.9479 74.4208ZM5 81.3101L2.65036 80.236L-0.0329981 86.1059L5.95949 83.7089L5 81.3101ZM95.4478 87.5164L95.4868 90.0996L95.4478 87.5164ZM83.8636 92.719L82.9667 95.1418L87.8124 96.9355L88.7093 94.5126L83.8636 92.719ZM102.564 94.6127L103.424 97.049L108.296 95.3294L107.436 92.8931L102.564 94.6127ZM85.0889 70.1149V77.0043H90.2559V70.1149H85.0889ZM98.8676 70.1149V77.0043H104.035V70.1149H98.8676ZM104.035 58.9197V15H98.8676V58.9197H104.035ZM31.2966 25.9465L52.8259 56.9486L57.0699 54.0014L35.5407 22.9992L31.2966 25.9465ZM36.8633 95.95C38.5321 97.9223 38.5315 97.9228 38.531 97.9232C38.5309 97.9233 38.5304 97.9237 38.5301 97.9239C38.5297 97.9243 38.5293 97.9246 38.5292 97.9248C38.5289 97.925 38.5292 97.9247 38.5302 97.9239C38.5323 97.9221 38.537 97.9182 38.5443 97.9121C38.559 97.9 38.5842 97.8792 38.6197 97.8504C38.6907 97.7928 38.8028 97.7032 38.9541 97.5862C39.2568 97.3519 39.7156 97.0083 40.3154 96.5916C41.5166 95.7571 43.274 94.6359 45.4676 93.5136C49.8756 91.2583 55.923 89.0607 62.6984 89.0607V83.8937C54.834 83.8937 47.9638 86.4324 43.1142 88.9136C40.6791 90.1595 38.7227 91.4065 37.3673 92.3482C36.6888 92.8196 36.1585 93.216 35.7918 93.4998C35.6084 93.6418 35.4657 93.7557 35.3655 93.8369C35.3155 93.8775 35.276 93.9099 35.2474 93.9336C35.2331 93.9454 35.2216 93.9551 35.2127 93.9625C35.2083 93.9662 35.2046 93.9693 35.2016 93.9719C35.2 93.9732 35.1987 93.9743 35.1975 93.9753C35.1969 93.9758 35.1962 93.9764 35.1959 93.9767C35.1952 93.9773 35.1945 93.9778 36.8633 95.95ZM99.6243 13.1732C91.1604 21.6371 85.8329 30.9707 82.6219 38.1678C81.0142 41.7713 79.9302 44.8545 79.2453 47.049C78.9027 48.1467 78.6595 49.0236 78.5002 49.6337C78.4206 49.9388 78.3619 50.1774 78.3223 50.3437C78.3024 50.4269 78.2874 50.492 78.2768 50.5383C78.2716 50.5615 78.2674 50.58 78.2644 50.5937C78.2628 50.6005 78.2616 50.6062 78.2606 50.6106C78.2601 50.6129 78.2597 50.6148 78.2593 50.6164C78.2592 50.6172 78.2589 50.6182 78.2589 50.6186C78.2587 50.6195 78.2585 50.6203 80.783 51.1692C83.3076 51.718 83.3074 51.7187 83.3073 51.7193C83.3073 51.7194 83.3071 51.7199 83.3071 51.7201C83.307 51.7205 83.307 51.7207 83.307 51.7205C83.3071 51.7201 83.3074 51.7186 83.3081 51.7158C83.3093 51.7104 83.3115 51.7002 83.3149 51.6854C83.3217 51.6558 83.3328 51.6077 83.3485 51.5418C83.3799 51.4099 83.4297 51.207 83.4998 50.9386C83.6399 50.4016 83.8609 49.6032 84.1777 48.5884C84.8114 46.5577 85.8265 43.6666 87.3406 40.2731C90.373 33.4762 95.3796 24.7251 103.278 16.8268L99.6243 13.1732ZM80.783 51.1692C82.714 49.4528 82.7134 49.4521 82.7128 49.4514C82.7125 49.4511 82.7117 49.4503 82.7111 49.4496C82.7098 49.4481 82.7083 49.4464 82.7064 49.4442C82.7026 49.44 82.6975 49.4343 82.6912 49.4273C82.6785 49.4132 82.6609 49.3935 82.6382 49.3685C82.593 49.3185 82.5278 49.247 82.4432 49.1553C82.274 48.972 82.0271 48.7078 81.7058 48.3735C81.0635 47.7049 80.1235 46.7547 78.9145 45.6079C76.4983 43.316 72.9974 40.2287 68.6409 37.0303C59.9658 30.6612 47.7097 23.712 33.7493 21.9106L33.088 27.0351C45.8238 28.6785 57.25 35.0774 65.583 41.1953C69.7306 44.2403 73.0652 47.1813 75.3585 49.3567C76.5042 50.4435 77.3875 51.3368 77.9798 51.9532C78.2758 52.2614 78.4989 52.5001 78.6456 52.6591C78.7189 52.7385 78.773 52.798 78.8076 52.8362C78.8249 52.8553 78.8373 52.869 78.8447 52.8773C78.8484 52.8815 78.8509 52.8842 78.8521 52.8856C78.8527 52.8863 78.8531 52.8867 78.853 52.8866C78.853 52.8866 78.8528 52.8864 78.8528 52.8864C78.8525 52.886 78.8521 52.8856 80.783 51.1692ZM54.9479 74.4208C53.5444 72.2517 53.5439 72.2521 53.5432 72.2525C53.543 72.2527 53.5423 72.2531 53.5417 72.2535C53.5406 72.2542 53.5393 72.2551 53.5377 72.2561C53.5346 72.2581 53.5306 72.2607 53.5257 72.2639C53.5159 72.2703 53.5026 72.279 53.4859 72.2899C53.4526 72.3119 53.4056 72.343 53.3457 72.3831C53.2261 72.4631 53.055 72.579 52.8388 72.7291C52.4067 73.0291 51.7935 73.4663 51.0503 74.0272C49.5664 75.1471 47.5514 76.77 45.4206 78.7887C41.2244 82.7641 36.2941 88.5382 34.3792 95.2403L39.3474 96.6598C40.8772 91.3055 44.9892 86.315 48.9742 82.5398C50.9339 80.6832 52.7942 79.1844 54.1629 78.1514C54.8461 77.6358 55.4035 77.2388 55.7854 76.9736C55.9763 76.8411 56.1231 76.7417 56.2196 76.6771C56.2678 76.6449 56.3034 76.6213 56.3257 76.6067C56.3368 76.5994 56.3446 76.5943 56.3489 76.5915C56.351 76.59 56.3523 76.5892 56.3528 76.5889C56.353 76.5888 56.353 76.5888 56.3527 76.5889C56.3526 76.589 56.3523 76.5892 56.3522 76.5893C56.3519 76.5895 56.3514 76.5898 54.9479 74.4208ZM5 81.3101C5.95949 83.7089 5.95917 83.709 5.95896 83.7091C5.95904 83.7091 5.95895 83.7091 5.95911 83.709C5.95944 83.7089 5.96022 83.7086 5.96146 83.7081C5.96394 83.7071 5.96823 83.7054 5.97431 83.703C5.98648 83.6982 6.00582 83.6905 6.03218 83.6801C6.0849 83.6594 6.16569 83.6279 6.27332 83.5863C6.48859 83.5033 6.81113 83.3804 7.2311 83.2249C8.07119 82.9137 9.3001 82.4722 10.8391 81.9569C13.9199 80.9256 18.2294 79.6038 23.1411 78.4419C33.0771 76.0915 45.0383 74.5056 54.2958 76.9206L55.6 71.9209C45.0505 69.1689 32.0379 71.0277 21.9516 73.4137C16.8521 74.62 12.3885 75.9894 9.19888 77.0572C7.60272 77.5915 6.32213 78.0515 5.43651 78.3795C4.99362 78.5435 4.64926 78.6747 4.41335 78.7657C4.29538 78.8112 4.20451 78.8467 4.14196 78.8713C4.11069 78.8836 4.08649 78.8931 4.06953 78.8999C4.06105 78.9032 4.05438 78.9059 4.04954 78.9078C4.04711 78.9088 4.04515 78.9096 4.04364 78.9102C4.04289 78.9105 4.04211 78.9108 4.04173 78.9109C4.04106 78.9112 4.04051 78.9114 5 81.3101ZM7.34964 82.3843C13.8097 68.2529 25.4883 62.1659 35.7676 59.5961C40.914 58.3095 45.6635 57.9209 49.1294 57.8562C50.8588 57.824 52.2591 57.8725 53.2174 57.9281C53.6963 57.9558 54.064 57.9853 54.3064 58.0071C54.4276 58.018 54.5174 58.027 54.574 58.033C54.6024 58.036 54.6224 58.0382 54.6338 58.0394C54.6396 58.0401 54.6432 58.0405 54.6447 58.0407C54.6454 58.0408 54.6456 58.0408 54.6452 58.0407C54.645 58.0407 54.6444 58.0406 54.6443 58.0406C54.6435 58.0405 54.6425 58.0404 54.9479 55.475C55.2533 52.9096 55.2521 52.9095 55.2507 52.9093C55.2501 52.9092 55.2486 52.9091 55.2473 52.9089C55.2447 52.9086 55.2416 52.9083 55.238 52.9078C55.2307 52.907 55.2211 52.9059 55.2094 52.9046C55.1861 52.902 55.154 52.8984 55.1134 52.8942C55.0323 52.8857 54.9173 52.8742 54.7702 52.8609C54.4761 52.8344 54.0533 52.8008 53.5163 52.7697C52.4428 52.7075 50.9097 52.6551 49.033 52.6901C45.2865 52.76 40.1326 53.1788 34.5144 54.5833C23.2644 57.3958 9.96903 64.2264 2.65036 80.236L7.34964 82.3843ZM95.4088 84.9331C90.73 85.0038 85.7954 87.5 83.8636 92.719L88.7093 94.5126C89.7447 91.7155 92.4539 90.1454 95.4868 90.0996L95.4088 84.9331ZM107.436 92.8931C105.498 87.4002 100.269 84.8597 95.4088 84.9331L95.4868 90.0996C98.6533 90.0517 101.525 91.6689 102.564 94.6127L107.436 92.8931Z" fill="#6D9F71"/>
  </g>
  <defs>
    <clipPath id="clip0_1229_8607">
      <rect width="110" height="110" fill="white"/>
    </clipPath>
  </defs>
</svg>