<svg width="53" height="32" viewBox="0 0 53 30" fill="none" xmlns="http://www.w3.org/2000/svg">
<path d="M43.7891 3.65463e-06C43.7866 1.70957e-06 43.7842 7.36765e-07 43.7818 7.36573e-07L26.9309 0C26.9288 0 26.9267 7.26753e-07 26.9246 2.1803e-06L26.4254 2.13665e-06V0.0140669C21.7282 0.27617 18 4.16817 18 8.93094C26.9309 8.93094 26.4254 12.6381 26.4254 17.8478V21.0635C26.4254 25.9959 30.4239 29.9945 35.3563 29.9945C40.2888 29.9945 44.2873 25.9959 44.2873 21.0635V17.8478C48.9845 17.5857 52.7127 13.6937 52.7127 8.93094C52.7127 4.16817 48.9845 0.276172 44.2873 0.0140678V3.69819e-06L43.7891 3.65463e-06Z" fill="url(#paint0_linear_154_2271)"/>
<g filter="url(#filter0_bii_154_2271)">
<path fill-rule="evenodd" clip-rule="evenodd" d="M3.54859 15.2555C0.0586767 11.7656 0.0586715 6.10729 3.54859 2.61741C7.0385 -0.87247 12.6968 -0.87247 16.1867 2.61741L18.293 4.72376L20.3993 2.61741C23.8893 -0.87247 29.5475 -0.87247 33.0375 2.61741C36.5274 6.10729 36.5274 11.7656 33.0375 15.2555L18.2931 30L3.54859 15.2555ZM16.9392 9.77886H19.6354V12.0972C20.7302 12.606 21.4893 13.7154 21.4893 15.0022C21.4893 16.7704 20.0559 18.2039 18.2876 18.2039C16.5194 18.2039 15.086 16.7704 15.086 15.0022C15.086 13.7157 15.8448 12.6064 16.9392 12.0975V9.77886Z" fill="url(#paint1_linear_154_2271)"/>
</g>
<defs>
<filter id="filter0_bii_154_2271" x="0.815591" y="-0.115561" width="34.9548" height="30.2311" filterUnits="userSpaceOnUse" color-interpolation-filters="sRGB">
<feFlood flood-opacity="0" result="BackgroundImageFix"/>
<feGaussianBlur in="BackgroundImageFix" stdDeviation="0.0577807"/>
<feComposite in2="SourceAlpha" operator="in" result="effect1_backgroundBlur_154_2271"/>
<feBlend mode="normal" in="SourceGraphic" in2="effect1_backgroundBlur_154_2271" result="shape"/>
<feColorMatrix in="SourceAlpha" type="matrix" values="0 0 0 0 0 0 0 0 0 0 0 0 0 0 0 0 0 0 127 0" result="hardAlpha"/>
<feOffset/>
<feGaussianBlur stdDeviation="0.0577807"/>
<feComposite in2="hardAlpha" operator="arithmetic" k2="-1" k3="1"/>
<feColorMatrix type="matrix" values="0 0 0 0 1 0 0 0 0 1 0 0 0 0 1 0 0 0 1 0"/>
<feBlend mode="normal" in2="shape" result="effect2_innerShadow_154_2271"/>
<feColorMatrix in="SourceAlpha" type="matrix" values="0 0 0 0 0 0 0 0 0 0 0 0 0 0 0 0 0 0 127 0" result="hardAlpha"/>
<feOffset dy="0.115561"/>
<feGaussianBlur stdDeviation="0.842541"/>
<feComposite in2="hardAlpha" operator="arithmetic" k2="-1" k3="1"/>
<feColorMatrix type="matrix" values="0 0 0 0 1 0 0 0 0 1 0 0 0 0 1 0 0 0 1 0"/>
<feBlend mode="normal" in2="effect2_innerShadow_154_2271" result="effect3_innerShadow_154_2271"/>
</filter>
<linearGradient id="paint0_linear_154_2271" x1="52.8798" y1="1.68357e-06" x2="22.8698" y2="34.3868" gradientUnits="userSpaceOnUse">
<stop stop-color="#FF8CCF"/>
<stop offset="1" stop-color="#F43A81"/>
</linearGradient>
<linearGradient id="paint1_linear_154_2271" x1="33.9713" y1="-3.58695" x2="-2.52793" y2="0.464004" gradientUnits="userSpaceOnUse">
<stop stop-color="#FC954B"/>
<stop offset="1" stop-color="#F45DD3"/>
</linearGradient>
</defs>
</svg>
