<svg xmlns="http://www.w3.org/2000/svg" width="126" height="120" viewBox="0 0 126 120" fill="none">
  <path d="M101.582 84.4802C101.582 86.5513 103.261 88.2302 105.332 88.2302C107.403 88.2302 109.082 86.5513 109.082 84.4802H101.582ZM117.894 84.4802C117.894 86.5513 119.572 88.2302 121.644 88.2302C123.715 88.2302 125.394 86.5513 125.394 84.4802H117.894ZM117.894 63.071C117.894 65.1421 119.572 66.821 121.644 66.821C123.715 66.821 125.394 65.1421 125.394 63.071H117.894ZM121.644 11.0771H125.394V2.02385L118.992 8.4255L121.644 11.0771ZM41.104 22.2915L41.5839 18.5723L33.2049 17.4912L38.0239 24.4305L41.104 22.2915ZM66.5912 58.9931L66.1479 62.7168C67.6135 62.8912 69.0451 62.1898 69.8054 60.9248C70.5657 59.6597 70.5132 58.0664 69.6714 56.8541L66.5912 58.9931ZM45.182 106.909L41.5763 105.879L38.1874 117.74L47.6043 109.772L45.182 106.909ZM75.7666 99.4446H79.5166V91.9446H75.7666V99.4446ZM97.1759 53.8956L94.3731 56.387C95.3107 57.4418 96.7612 57.8809 98.1265 57.5231C99.4917 57.1654 100.54 56.0714 100.84 54.6922L97.1759 53.8956ZM66.5912 81.4218L68.6284 84.5702L75.7793 79.9432L67.5378 77.7932L66.5912 81.4218ZM7.46094 89.5777L4.05041 88.0186L0.155478 96.5387L8.85365 93.0595L7.46094 89.5777ZM101.582 76.3243V84.4802H109.082V76.3243H101.582ZM117.894 76.3243V84.4802H125.394V76.3243H117.894ZM125.394 63.071V11.0771H117.894V63.071H125.394ZM38.0239 24.4305L63.5111 61.132L69.6714 56.8541L44.1842 20.1525L38.0239 24.4305ZM45.182 106.909C47.6043 109.772 47.6034 109.772 47.6026 109.773C47.6024 109.773 47.6017 109.774 47.6013 109.774C47.6005 109.775 47.5999 109.775 47.5994 109.776C47.5986 109.776 47.5986 109.776 47.5994 109.776C47.6009 109.775 47.6055 109.771 47.6133 109.764C47.6288 109.751 47.6567 109.728 47.6968 109.696C47.777 109.631 47.9056 109.528 48.0804 109.393C48.4301 109.122 48.9637 108.722 49.6632 108.236C51.0646 107.263 53.1185 105.952 55.6831 104.64C60.8423 102.001 67.8913 99.4446 75.7666 99.4446V91.9446C66.3106 91.9446 58.0673 94.9958 52.267 97.9634C49.3519 99.4548 47.0093 100.948 45.384 102.077C44.5703 102.642 43.933 103.119 43.4903 103.461C43.2688 103.633 43.0957 103.771 42.9733 103.87C42.9121 103.92 42.8635 103.96 42.8278 103.989C42.8099 104.004 42.7953 104.016 42.784 104.026C42.7783 104.031 42.7734 104.035 42.7694 104.038C42.7674 104.04 42.7655 104.041 42.7639 104.043C42.7631 104.043 42.7621 104.044 42.7617 104.045C42.7607 104.045 42.7597 104.046 45.182 106.909ZM118.992 8.4255C108.896 18.5211 102.546 29.6485 98.7212 38.2223C96.8054 42.5164 95.5129 46.1922 94.6953 48.8119C94.2862 50.1226 93.9953 51.1711 93.8043 51.9032C93.7087 52.2694 93.6381 52.5566 93.59 52.7581C93.566 52.8588 93.5476 52.9382 93.5346 52.9953C93.5281 53.0238 93.523 53.0468 93.5191 53.0641C93.5172 53.0728 93.5156 53.08 93.5143 53.0859C93.5137 53.0888 93.5131 53.0913 93.5126 53.0935C93.5124 53.0946 93.5121 53.096 93.512 53.0965C93.5117 53.0978 93.5114 53.099 97.1759 53.8956C100.84 54.6922 100.84 54.6933 100.84 54.6942C100.84 54.6944 100.84 54.6952 100.84 54.6956C100.839 54.6964 100.839 54.6968 100.839 54.6968C100.839 54.6969 100.84 54.6957 100.84 54.693C100.841 54.6876 100.844 54.6767 100.847 54.6603C100.855 54.6275 100.868 54.5728 100.886 54.4971C100.922 54.3456 100.98 54.1101 101.061 53.7973C101.225 53.1714 101.483 52.2367 101.855 51.0464C102.598 48.6644 103.791 45.2674 105.57 41.2781C109.137 33.2853 115.021 23.0034 124.295 13.7288L118.992 8.4255ZM97.1759 53.8956C99.9786 51.4043 99.9779 51.4034 99.977 51.4024C99.9766 51.4019 99.9756 51.4008 99.9747 51.3999C99.9731 51.398 99.971 51.3957 99.9686 51.393C99.9638 51.3876 99.9574 51.3805 99.9496 51.3718C99.9339 51.3543 99.9123 51.3303 99.8848 51.2999C99.8298 51.2391 99.7512 51.1528 99.6495 51.0426C99.4462 50.8223 99.1506 50.5062 98.767 50.1069C97.9999 49.3084 96.8795 48.176 95.4397 46.8103C92.5629 44.0814 88.3961 40.407 83.2108 36.6C72.895 29.0264 58.2748 20.726 41.5839 18.5723L40.6241 26.0107C55.5374 27.935 68.9531 35.4366 78.7722 42.6456C83.6543 46.2299 87.5797 49.6919 90.2782 52.2516C91.6261 53.5302 92.6641 54.5801 93.3586 55.3029C93.7057 55.6642 93.9666 55.9435 94.1372 56.1283C94.2225 56.2208 94.2851 56.2896 94.3246 56.3332C94.3444 56.355 94.3583 56.3705 94.3664 56.3796C94.3705 56.3841 94.373 56.387 94.3742 56.3882C94.3747 56.3888 94.3749 56.389 94.3747 56.3888C94.3746 56.3887 94.3742 56.3883 94.3742 56.3882C94.3737 56.3877 94.3731 56.387 97.1759 53.8956ZM66.5912 81.4218C64.554 78.2734 64.5532 78.2739 64.5524 78.2745C64.552 78.2747 64.5511 78.2753 64.5503 78.2758C64.5488 78.2768 64.5471 78.2779 64.545 78.2792C64.541 78.2819 64.5359 78.2852 64.5297 78.2892C64.5174 78.2972 64.5009 78.308 64.4804 78.3215C64.4394 78.3485 64.3823 78.3863 64.3099 78.4348C64.1651 78.5316 63.9593 78.6711 63.7001 78.8511C63.1818 79.2109 62.4483 79.7338 61.5605 80.4038C59.7884 81.7413 57.3823 83.6792 54.8368 86.0907C49.8409 90.8237 43.8947 97.7641 41.5763 105.879L48.7877 107.939C50.5472 101.781 55.3056 95.9779 59.9949 91.5354C62.292 89.3592 64.4736 87.6015 66.0785 86.3902C66.8792 85.786 67.5316 85.3212 67.9771 85.012C68.1997 84.8575 68.3702 84.742 68.4813 84.6677C68.5369 84.6305 68.5775 84.6036 68.6023 84.5873C68.6148 84.5791 68.6232 84.5736 68.6276 84.5707C68.6298 84.5693 68.631 84.5685 68.6311 84.5684C68.6312 84.5684 68.631 84.5685 68.6306 84.5688C68.6303 84.5689 68.6298 84.5693 68.6297 84.5694C68.6291 84.5697 68.6284 84.5702 66.5912 81.4218ZM7.46094 89.5777C8.85365 93.0595 8.85315 93.0597 8.85279 93.0598C8.85285 93.0598 8.85261 93.0599 8.85273 93.0598C8.85296 93.0598 8.85373 93.0594 8.85504 93.0589C8.85766 93.0579 8.86241 93.056 8.86929 93.0533C8.88306 93.0478 8.9053 93.039 8.93585 93.027C8.99695 93.003 9.09124 92.9661 9.21727 92.9175C9.46936 92.8202 9.84828 92.6759 10.3424 92.4929C11.3308 92.1268 12.7787 91.6065 14.5931 90.9992C18.2257 89.7831 23.3068 88.2247 29.0963 86.8552C40.8387 84.0774 54.8583 82.2365 65.6447 85.0503L67.5378 77.7932C54.876 74.4901 39.3303 76.7272 27.3697 79.5566C21.3076 80.9906 16.0028 82.6182 12.2122 83.8871C10.315 84.5222 8.79203 85.0692 7.73752 85.4598C7.21014 85.6551 6.79955 85.8115 6.5175 85.9203C6.37647 85.9747 6.26754 86.0172 6.19218 86.0469C6.15449 86.0617 6.1252 86.0733 6.10448 86.0815C6.09412 86.0856 6.08591 86.0889 6.07986 86.0913C6.07683 86.0925 6.07435 86.0935 6.07241 86.0942C6.07144 86.0946 6.07039 86.095 6.0699 86.0952C6.069 86.0956 6.06822 86.0959 7.46094 89.5777ZM10.8715 91.1368C18.4042 74.6589 32.0134 67.5524 44.0525 64.5426C50.0819 63.0353 55.6505 62.5793 59.7159 62.5035C61.7436 62.4656 63.3835 62.5226 64.5026 62.5874C65.0617 62.6198 65.4897 62.6542 65.7698 62.6794C65.9098 62.692 66.0127 62.7024 66.0764 62.709C66.1083 62.7124 66.1304 62.7148 66.1424 62.7162C66.1484 62.7168 66.1519 62.7172 66.1528 62.7173C66.1533 62.7174 66.1531 62.7174 66.1523 62.7173C66.1519 62.7172 66.1508 62.7171 66.1506 62.7171C66.1493 62.7169 66.1479 62.7168 66.5912 58.9931C67.0345 55.2694 67.0328 55.2692 67.0309 55.2689C67.03 55.2688 67.028 55.2686 67.0263 55.2684C67.0228 55.268 67.0188 55.2675 67.014 55.267C67.0046 55.2659 66.9925 55.2645 66.9779 55.2628C66.9486 55.2596 66.909 55.2552 66.8594 55.25C66.7601 55.2396 66.6206 55.2257 66.443 55.2097C66.0879 55.1777 65.58 55.1373 64.9365 55.1C63.6502 55.0255 61.8175 54.963 59.576 55.0048C55.1032 55.0882 48.9477 55.588 42.2335 57.2666C28.7854 60.6286 12.8295 68.8144 4.05041 88.0186L10.8715 91.1368Z" fill="#1C4A3A"/>
</svg>