<svg width="128" height="95" viewBox="0 0 128 95" fill="none" xmlns="http://www.w3.org/2000/svg">
<g clip-path="url(#clip0_1547_4903)">
<path d="M126.865 34.6198C122.003 26.5319 112.611 21.9884 103.728 19.8623C95.4207 17.9526 86.7573 18.071 78.4004 19.8623C70.0436 21.6535 61.9386 25.0157 54.7244 29.6719C46.2908 35.1131 39.0139 42.0995 32.6638 49.8354C26.2392 57.677 20.7925 66.2408 15.8975 75.0994C15.3082 76.2028 14.6679 77.3336 14.0785 78.437C13.1945 80.0922 15.6436 81.6003 16.5277 79.9451C21.1679 71.2232 26.2815 62.7724 32.291 54.8909C38.2023 47.1934 44.9586 40.0926 52.8168 34.435C59.5576 29.5078 67.1854 25.7453 75.2727 23.5737C83.1015 21.4095 91.335 20.7342 99.4165 21.9777C103.418 22.5877 107.305 23.7183 111 25.346C115.191 27.1665 119.248 29.7152 122.219 33.1745C122.969 34.0844 123.641 34.9707 124.239 35.9626C125.293 37.5623 127.841 36.1959 126.865 34.6198Z" fill="#AEAEAE"/>
<path d="M38.7909 68.7273C33.3307 71.393 27.8196 74.086 22.3594 76.7516C20.3173 77.7155 18.0203 78.816 15.75 78.1307C13.7654 77.4889 12.3193 75.7711 11.4647 73.9328C10.1692 71.1499 10.206 67.915 10.1992 64.9658C10.1985 63.129 7.29662 62.9792 7.32474 64.867C7.35443 70.4284 7.80514 77.142 13.2477 80.1943C15.8771 81.6714 18.6895 81.4099 21.4015 80.3492C24.2938 79.2575 27.0693 77.7035 29.8758 76.3297C33.3212 74.6789 36.6883 73.0045 40.1337 71.3537C41.8154 70.4518 40.4489 67.9038 38.7909 68.7273Z" fill="#AEAEAE"/>
</g>
<defs>
<clipPath id="clip0_1547_4903">
<rect width="127.522" height="93.5411" fill="white" transform="translate(-0.000976562 0.524902)"/>
</clipPath>
</defs>
</svg>
