<svg width="130" height="98" viewBox="0 0 130 98" fill="none" xmlns="http://www.w3.org/2000/svg">
<g clip-path="url(#clip0_1547_4905)">
<path d="M10.016 15.0327C8.02335 24.2569 11.7589 33.9982 16.7784 41.6291C21.5266 48.7083 27.9227 54.5529 35.2405 58.9682C42.5584 63.3835 50.7681 66.4813 59.2143 68.026C69.0868 69.8333 79.1739 69.7224 89.0986 68.4306C99.1499 67.1128 108.983 64.5991 118.615 61.4929C119.8 61.092 121.041 60.7061 122.226 60.3053C124.004 59.704 123.251 56.928 121.473 57.5293C112.12 60.7104 102.607 63.3697 92.8313 65.0007C83.2527 66.5649 73.4668 67.1156 63.8655 65.86C55.5789 64.8369 47.443 62.3576 40.0612 58.4041C32.873 54.6222 26.409 49.4778 21.3695 43.0389C18.8702 39.8548 16.8108 36.3696 15.2321 32.654C13.4231 28.4576 12.2106 23.8224 12.4135 19.2671C12.4894 18.0901 12.6062 16.984 12.8497 15.8519C13.176 13.9638 10.3833 13.2154 10.016 15.0327Z" fill="#AEAEAE"/>
<path d="M97.5635 50.4643C103.368 52.2592 109.229 54.069 115.034 55.8639C117.183 56.5593 119.61 57.3296 120.796 59.3834C121.803 61.2098 121.682 63.452 121.046 65.377C120.085 68.2925 117.844 70.6253 115.83 72.7796C114.573 74.1191 116.585 76.2149 117.857 74.8196C121.643 70.7453 125.91 65.543 124.033 59.5921C123.127 56.7154 120.898 54.9807 118.195 53.8972C115.34 52.713 112.253 51.9457 109.266 51.0259C105.625 49.8705 102.024 48.786 98.3826 47.6306C96.5394 47.1367 95.7911 49.9295 97.5635 50.4643Z" fill="#AEAEAE"/>
</g>
<defs>
<clipPath id="clip0_1547_4905">
<rect width="129.384" height="96.5912" fill="white" transform="translate(0 0.698242)"/>
</clipPath>
</defs>
</svg>
