<svg width="129" height="94" viewBox="0 0 129 94" fill="none" xmlns="http://www.w3.org/2000/svg">
<g clip-path="url(#clip0_1547_4906)">
<path d="M1.29708 59.6688C6.15931 67.7567 15.5511 72.3001 24.4339 74.4262C32.7414 76.336 41.4048 76.2176 49.7617 74.4263C58.1185 72.635 66.2235 69.2728 73.4377 64.6167C81.8713 59.1754 89.1483 52.1891 95.4983 44.4532C101.923 36.6116 107.37 28.0477 112.265 19.1892C112.854 18.0858 113.494 16.955 114.084 15.8515C114.968 14.1964 112.518 12.6883 111.634 14.3435C106.994 23.0654 101.881 31.5162 95.8711 39.3976C89.9598 47.0952 83.2036 54.196 75.3453 59.8536C68.6045 64.7808 60.9767 68.5433 52.8894 70.7149C45.0607 72.8791 36.8271 73.5544 28.7456 72.3109C24.744 71.7009 20.8569 70.5703 17.1626 68.9426C12.9711 67.1221 8.91408 64.5734 5.94346 61.114C5.19305 60.2041 4.52094 59.3179 3.92341 58.326C2.86868 56.7263 0.320652 58.0927 1.29708 59.6688Z" fill="#AEAEAE"/>
<path d="M89.3664 25.5617C94.8265 22.8961 100.338 20.2031 105.798 17.5375C107.84 16.5736 110.137 15.473 112.407 16.1584C114.392 16.8001 115.838 18.518 116.693 20.3563C117.988 23.1392 117.951 26.3741 117.958 29.3232C117.959 31.16 120.861 31.3099 120.832 29.4221C120.803 23.8607 120.352 17.1471 114.909 14.0947C112.28 12.6177 109.468 12.8792 106.756 13.9399C103.863 15.0315 101.088 16.5856 98.2814 17.9594C94.8361 19.6102 91.469 21.2846 88.0236 22.9354C86.3419 23.8372 87.7083 26.3853 89.3664 25.5617Z" fill="#AEAEAE"/>
</g>
<defs>
<clipPath id="clip0_1547_4906">
<rect width="127.519" height="93.5394" fill="white" transform="translate(0.641602 0.224121)"/>
</clipPath>
</defs>
</svg>
