<svg width="131" height="95" viewBox="0 0 131 95" fill="none" xmlns="http://www.w3.org/2000/svg">
<g clip-path="url(#clip0_1547_4904)">
<path d="M120.145 81.2568C122.138 72.0326 118.402 62.2913 113.383 54.6605C108.635 47.5812 102.238 41.7366 94.9206 37.3213C87.6027 32.906 79.3931 29.8083 70.9469 28.2635C61.0743 26.4563 50.9872 26.5671 41.0626 27.859C31.0112 29.1767 21.1782 31.6904 11.5457 34.7966C10.3607 35.1975 9.11983 35.5834 7.93483 35.9843C6.15734 36.5856 6.91018 39.3615 8.68767 38.7602C18.041 35.5792 27.5538 32.9198 37.3298 31.2888C46.9084 29.7247 56.6943 29.1739 66.2956 30.4296C74.5823 31.4526 82.7182 33.932 90.0999 37.8855C97.2881 41.6674 103.752 46.8117 108.792 53.2507C111.291 56.4347 113.35 59.9199 114.929 63.6356C116.738 67.8319 117.95 72.4672 117.748 77.0225C117.672 78.1994 117.555 79.3056 117.311 80.4377C116.985 82.3258 119.778 83.0741 120.145 81.2568Z" fill="#AEAEAE"/>
<path d="M32.5976 45.8253C26.7927 44.0304 20.9319 42.2205 15.1269 40.4256C12.9785 39.7302 10.5508 38.96 9.36499 36.9062C8.35773 35.0797 8.47963 32.8375 9.11516 30.9125C10.076 27.9971 12.3174 25.6642 14.3314 23.5099C15.5883 22.1705 13.5756 20.0747 12.3038 21.47C8.51814 25.5442 4.25064 30.7465 6.12831 36.6974C7.03374 39.5741 9.26287 41.3088 11.9658 42.3923C14.8214 43.5765 17.9084 44.3438 20.8947 45.2637C24.5363 46.419 28.1369 47.5036 31.7785 48.6589C33.6217 49.1528 34.37 46.3601 32.5976 45.8253Z" fill="#AEAEAE"/>
</g>
<defs>
<clipPath id="clip0_1547_4904">
<rect width="129.384" height="94.5912" fill="white" transform="translate(0.777344)"/>
</clipPath>
</defs>
</svg>
