<svg xmlns="http://www.w3.org/2000/svg" width="51" height="51" viewBox="0 0 51 51" fill="none">
<path d="M49.4432 22.3774C49.4421 22.3763 49.4409 22.3751 49.4398 22.374L29.0076 1.94258C28.1367 1.07128 26.9788 0.591309 25.7471 0.591309C24.5155 0.591309 23.3576 1.0709 22.4863 1.94219L2.0648 22.3633C2.05792 22.3702 2.05105 22.3774 2.04417 22.3843C0.255726 24.1831 0.258784 27.1015 2.05296 28.8957C2.87266 29.7158 3.95528 30.1908 5.1128 30.2405C5.1598 30.245 5.20719 30.2473 5.25495 30.2473H6.06931V45.2836C6.06931 48.259 8.4902 50.6799 11.4663 50.6799H19.4601C20.2702 50.6799 20.9275 50.023 20.9275 49.2125V37.424C20.9275 36.0663 22.0319 34.9619 23.3897 34.9619H28.1046C29.4623 34.9619 30.5667 36.0663 30.5667 37.424V49.2125C30.5667 50.023 31.2237 50.6799 32.0342 50.6799H40.0279C43.0041 50.6799 45.4249 48.259 45.4249 45.2836V30.2473H46.1801C47.4113 30.2473 48.5692 29.7677 49.4409 28.8965C51.237 27.0992 51.2378 24.1758 49.4432 22.3774Z" fill="#F8DDE4"/>
</svg>
