<svg width="112" height="10" viewBox="0 0 112 10" fill="none" xmlns="http://www.w3.org/2000/svg">
<path d="M3.29815 2.40202C3.24409 4.13176 4.21706 5.69933 5.67653 6.51014C7.56842 7.59122 9.94681 6.83446 11.7847 6.02365C13.9468 5.10473 16.0009 3.96959 18.2712 3.53716C20.5955 3.10473 22.7576 3.42905 24.6495 4.83446C25.2982 5.32095 25.9468 5.91554 26.7577 5.9696C26.8117 5.9696 27.082 5.91554 27.1901 5.86149C27.5685 5.64527 27.5685 5.64527 27.8928 5.375C28.9739 4.40203 29.7306 3.10473 30.8658 2.18581C32.3252 0.996614 34.109 0.672289 35.8928 1.4831C37.4604 2.18581 38.5415 3.64527 40.0009 4.45608C41.2442 5.15879 42.4334 4.88851 43.6766 4.29392C45.1901 3.59121 46.5415 2.61824 48.055 1.86148C49.6766 1.10472 51.3523 0.618234 53.1361 1.05067C54.1091 1.26688 55.028 1.80743 55.8928 2.40202C56.6496 2.88851 57.4064 3.48311 58.2712 3.69932C59.7307 4.0777 61.1902 2.88851 62.4334 2.0777C64.001 1.10472 65.8388 0.402018 67.6767 0.996614C69.4605 1.59121 70.4875 3.15878 72.0551 4.13176C73.6767 5.15878 75.5145 4.29392 77.1902 3.80743C78.2172 3.48311 79.2983 3.21283 80.3794 3.21283C81.5145 3.21283 82.5956 3.59121 83.6767 4.02365C84.7578 4.45608 85.8389 4.88851 86.974 5.05068C88.2172 5.21284 89.4605 5.15878 90.7038 5.15878C96.0551 5.21284 101.406 5.26689 106.704 5.32095C108.001 5.32095 109.298 5.375 110.596 5.375C112.325 5.375 112.325 8.07771 110.596 8.07771C105.19 8.02366 99.7308 7.9696 94.3254 7.91555C91.7308 7.86149 89.0281 8.02366 86.4335 7.69933C85.1902 7.53717 84.0551 7.10474 82.9199 6.61825C81.947 6.18581 80.974 5.86149 79.8929 5.9696C77.7848 6.18581 75.947 7.37501 73.7848 7.37501C71.6226 7.37501 70.1091 6.13176 68.5415 4.72635C68.001 4.23986 67.3523 3.69932 66.6496 3.53716C66.001 3.375 65.4064 3.59121 64.8118 3.86149C63.1902 4.6723 61.8388 5.91554 60.055 6.29392C57.8388 6.78041 56.1091 5.69933 54.3253 4.56419C53.9469 4.34797 53.5685 4.0777 53.1361 3.91554C52.8118 3.75338 52.3253 3.64527 52.1091 3.64527C51.3523 3.59121 50.8118 3.69932 50.0009 4.02365C46.9199 5.15879 44.2172 8.07771 40.5415 7.53717C38.6496 7.2669 37.2982 5.91554 35.8928 4.78041C35.3523 4.34797 34.7577 3.86148 34.055 3.80743C33.8387 3.75338 33.6225 3.80743 33.3523 3.86149C33.1901 3.91554 32.9198 4.02365 32.6496 4.23986C32.7577 4.13176 32.4333 4.45608 32.3793 4.51013C32.2712 4.61824 32.109 4.72635 32.0009 4.88851C31.7306 5.15878 31.5144 5.42906 31.2442 5.75338C30.7577 6.29392 30.3252 6.88852 29.7847 7.42906C28.3793 8.78042 26.5414 9.21285 24.7577 8.34798C23.8387 7.91555 23.136 7.15879 22.2171 6.6723C21.3522 6.18581 20.3252 6.13176 19.3522 6.23987C17.082 6.51014 15.0279 7.69933 12.9738 8.5642C10.7036 9.53717 8.16302 10.2939 5.67653 9.59123C3.67652 9.05069 1.94679 7.53717 1.13598 5.64527C0.703546 4.6723 0.433268 3.64527 0.487322 2.56418C0.595431 0.672289 3.29815 0.672288 3.29815 2.40202Z" fill="#AEAEAE"/>
</svg>
