<svg width="90" height="12" viewBox="0 0 90 12" fill="none" xmlns="http://www.w3.org/2000/svg">
<path d="M2.19454 5.8614C2.08644 5.91545 1.81616 5.96951 1.7621 5.96951C1.04138 6.55712 0.11887 7.96757 2.19454 8.9084C4.27022 9.84922 4.78914 8.31412 4.78914 7.42897C5.32968 6.88843 5.76212 6.29383 6.24861 5.75329C6.51888 5.42896 6.73509 5.15869 7.00536 4.88842C7.11347 4.72626 7.27562 4.61815 7.38373 4.51004C7.43779 4.45599 7.76211 4.13166 7.65401 4.23977C7.92428 4.02355 8.19456 3.91545 8.35672 3.86139C8.62699 3.80734 8.8432 3.75328 9.05942 3.80734C9.76212 3.86139 10.3567 4.34788 10.8973 4.78031C12.3027 5.91545 13.654 7.26681 15.5459 7.53708C19.2216 8.07762 21.9243 5.15869 25.0054 4.02355C25.8162 3.69923 26.3567 3.59112 27.1135 3.64518C27.3297 3.64518 27.8162 3.75328 28.1405 3.91545C28.573 4.07761 28.9514 4.34788 29.3297 4.5641C31.1135 5.69923 32.8433 6.78032 35.0595 6.29383C36.8433 5.91545 38.1946 4.6722 39.8162 3.86139C40.4108 3.59112 41.0054 3.3749 41.6541 3.53707C42.3568 3.69923 43.0054 4.23977 43.546 4.72626C45.1136 6.13167 46.6271 7.37491 48.7892 7.37491C50.9514 7.37491 52.7893 6.18572 54.8974 5.96951C55.9785 5.8614 56.9514 6.18572 57.9244 6.61816C59.0595 7.10464 60.1947 7.53708 61.4379 7.69924C64.0325 8.02356 66.7352 7.8614 69.3298 7.91546C74.7353 7.96951 80.1947 8.02356 85.6001 8.07762C87.3299 8.07762 87.3299 5.37491 85.6001 5.37491C84.3028 5.37491 83.0055 5.32085 81.7082 5.32085C76.4109 5.2668 71.0596 5.21275 65.7082 5.15869C64.465 5.15869 63.2217 5.21275 61.9785 5.05058C60.8433 4.88842 59.7622 4.45599 58.6812 4.02355C57.6001 3.59112 56.519 3.21274 55.3838 3.21274C54.3027 3.21274 53.2217 3.48301 52.1947 3.80734C50.519 4.29383 48.6811 5.15869 47.0595 4.13166C45.4919 3.15869 44.4649 1.59112 42.6811 0.99652C40.8433 0.401924 39.0054 1.10463 37.4379 2.0776C36.1946 2.88842 34.7352 4.07761 33.2757 3.69923C32.4108 3.48301 31.6541 2.88842 30.8973 2.40193C30.0324 1.80733 29.1135 1.26679 28.1405 1.05057C26.3568 0.618139 24.6811 1.10463 23.0594 1.86139C21.5459 2.61814 20.1946 3.59112 18.6811 4.29383C17.4378 4.88842 16.2486 5.15869 15.0054 4.45599C13.5459 3.64518 12.4648 2.18571 10.8973 1.48301C9.11347 0.672194 7.32969 0.99652 5.87022 2.18571C4.73508 3.10463 3.97833 4.40193 2.89724 5.37491L2.89719 5.37495C2.57292 5.64518 2.5729 5.64519 2.19454 5.8614Z" fill="#AEAEAE"/>
<path d="M79.3792 9.32102C82.2982 8.45615 85.0549 7.15885 87.5955 5.53722C87.5955 6.29398 87.5955 7.10479 87.5955 7.86155C84.1901 6.23993 80.7306 4.78046 77.2171 3.48316C76.5144 3.21289 76.0819 2.56424 76.2981 1.80748C76.4603 1.15883 77.2711 0.618293 77.9738 0.888563C81.7576 2.23992 85.4333 3.80749 89.0009 5.53722C89.9738 6.02371 89.8117 7.37506 89.0009 7.86155C86.2441 9.64534 83.2711 10.9967 80.136 11.9156C78.4063 12.4021 77.7035 9.8075 79.3792 9.32102Z" fill="#AEAEAE"/>
</svg>
