<svg width="61" height="61" viewBox="0 0 61 61" fill="none" xmlns="http://www.w3.org/2000/svg">
<circle cx="30.303" cy="30.3027" r="30.303" fill="#F2D1E4"/>
<g filter="url(#filter0_bii_216_2124)">
<path fill-rule="evenodd" clip-rule="evenodd" d="M19.3561 46.3422C12.9687 46.3423 7.79054 41.1641 7.79057 34.7767C7.7906 28.3893 12.9687 23.2112 19.3561 23.2112L23.2112 23.2112L23.2112 19.3561C23.2112 12.9686 28.3893 7.79057 34.7767 7.79053C41.1642 7.7905 46.3422 12.9686 46.3423 19.3561L46.3424 46.3422L19.3561 46.3422ZM26.5984 29.0761L29.0658 26.6088L31.1879 28.7309C32.6553 28.1948 34.365 28.5155 35.5425 29.6929C37.1606 31.3111 37.1606 33.9346 35.5425 35.5528C33.9243 37.171 31.3008 37.171 29.6826 35.5528C28.5051 34.3754 28.1845 32.6656 28.7205 31.1982L26.5984 29.0761Z" fill="url(#paint0_linear_216_2124)"/>
</g>
<defs>
<filter id="filter0_bii_216_2124" x="7.56561" y="7.56561" width="39.0016" height="39.0016" filterUnits="userSpaceOnUse" color-interpolation-filters="sRGB">
<feFlood flood-opacity="0" result="BackgroundImageFix"/>
<feGaussianBlur in="BackgroundImageFix" stdDeviation="0.11246"/>
<feComposite in2="SourceAlpha" operator="in" result="effect1_backgroundBlur_216_2124"/>
<feBlend mode="normal" in="SourceGraphic" in2="effect1_backgroundBlur_216_2124" result="shape"/>
<feColorMatrix in="SourceAlpha" type="matrix" values="0 0 0 0 0 0 0 0 0 0 0 0 0 0 0 0 0 0 127 0" result="hardAlpha"/>
<feOffset/>
<feGaussianBlur stdDeviation="0.11246"/>
<feComposite in2="hardAlpha" operator="arithmetic" k2="-1" k3="1"/>
<feColorMatrix type="matrix" values="0 0 0 0 1 0 0 0 0 1 0 0 0 0 1 0 0 0 1 0"/>
<feBlend mode="normal" in2="shape" result="effect2_innerShadow_216_2124"/>
<feColorMatrix in="SourceAlpha" type="matrix" values="0 0 0 0 0 0 0 0 0 0 0 0 0 0 0 0 0 0 127 0" result="hardAlpha"/>
<feOffset dy="0.22492"/>
<feGaussianBlur stdDeviation="1.63986"/>
<feComposite in2="hardAlpha" operator="arithmetic" k2="-1" k3="1"/>
<feColorMatrix type="matrix" values="0 0 0 0 1 0 0 0 0 1 0 0 0 0 1 0 0 0 1 0"/>
<feBlend mode="normal" in2="effect2_innerShadow_216_2124" result="effect3_innerShadow_216_2124"/>
</filter>
<linearGradient id="paint0_linear_216_2124" x1="29.9536" y1="1.25812" x2="0.259114" y2="38.3669" gradientUnits="userSpaceOnUse">
<stop stop-color="#FC954B"/>
<stop offset="1" stop-color="#F45DD3"/>
</linearGradient>
</defs>
</svg>
