<svg xmlns="http://www.w3.org/2000/svg" width="60" height="60" viewBox="0 0 60 60" fill="none">
<path fill-rule="evenodd" clip-rule="evenodd" d="M60 30C60 46.5685 46.5685 60 30 60C13.4315 60 0 46.5685 0 30C0 13.4315 13.4315 0 30 0C46.5685 0 60 13.4315 60 30ZM37.9765 30.8141C40.2572 30.3514 41.6287 28.851 42.0984 26.3126V26.3101L42.0334 26.5352C42.2108 25.6174 42.1883 24.7696 41.971 23.9944C41.7536 23.2216 41.3564 22.5339 40.7794 21.9337C40.2023 21.336 39.5353 20.8133 38.7858 20.3707C38.0339 19.928 37.1446 19.5079 36.1203 19.1103L37.5892 13.9786L34.514 13.0958L33.0851 18.0849C32.553 17.9324 31.7361 17.7123 30.6369 17.4247L32.0784 12.3956L29.0007 11.5128L27.5318 16.6445C27.0871 16.5319 26.4401 16.3544 25.5882 16.1093L21.3614 14.8739L20.4046 18.2125L22.6204 18.8477C23.6322 19.1378 24.0943 19.7705 24.0019 20.7433L22.3282 26.5877C22.4359 26.6159 22.5411 26.6527 22.6429 26.6978L22.3232 26.6077L19.9774 34.7904C19.6726 35.4531 19.188 35.6882 18.5235 35.4981L16.3052 34.8604L14.6189 38.4091L18.6134 39.557C18.8682 39.6295 19.243 39.6995 19.7426 39.7695C20.1155 39.8149 20.4852 39.8842 20.8493 39.9771L19.3629 45.1688L22.4381 46.0516L23.907 40.9199C24.4641 41.095 25.2735 41.335 26.3377 41.6401L24.8763 46.7518L27.949 47.6346L29.4378 42.4429C30.4236 42.6804 31.4231 42.8567 32.4306 42.9706C33.3174 43.0656 34.1943 43.0631 35.0586 42.9656C35.9205 42.868 36.6799 42.6555 37.3369 42.3304C37.9939 42.0053 38.5935 41.5226 39.1431 40.8874C39.7325 40.1849 40.1988 39.3876 40.522 38.5291C41.2365 36.691 41.3514 35.153 40.8718 33.9151C40.3896 32.6747 39.4254 31.6394 37.9765 30.8141ZM34.6989 34.7879C34.7888 35.2255 34.7639 35.6882 34.6265 36.1759H34.624L34.5715 36.3584C34.475 36.7143 34.3104 37.0481 34.0869 37.3412C33.8695 37.6188 33.6297 37.8414 33.3624 38.0165C33.0976 38.189 32.7753 38.3191 32.3981 38.4016C32.0234 38.4816 31.6662 38.5366 31.3289 38.5566C30.9917 38.5766 30.5945 38.5666 30.1373 38.5241C29.6827 38.4816 29.2855 38.4291 28.9507 38.3691C28.1905 38.2267 27.437 38.0506 26.6924 37.8414C26.4376 37.7689 26.1278 37.6438 25.7606 37.4663C25.3959 37.2862 25.1585 37.1812 25.0511 37.1512L27.0221 30.2714L27.9764 30.5215C28.8776 30.7338 29.7646 31.0027 30.6319 31.3268C31.12 31.4993 31.5965 31.7031 32.0584 31.937C32.4753 32.1583 32.8761 32.409 33.2575 32.6872C33.6341 32.9451 33.9629 33.2666 34.2293 33.6375C34.4601 33.9862 34.6197 34.3772 34.6989 34.7879ZM35.9829 26.0775C36.1103 25.6299 36.1428 25.2098 36.0754 24.8146C36.0079 24.4195 35.8855 24.0769 35.7106 23.7843C35.5358 23.4917 35.271 23.2091 34.9162 22.939C34.5615 22.6689 34.2268 22.4514 33.912 22.2888C33.5997 22.1238 33.205 21.9537 32.7304 21.7736C32.2557 21.5936 31.876 21.4635 31.5862 21.3885C31.5483 21.3785 31.509 21.3682 31.4682 21.3575C31.2031 21.2877 30.8788 21.2025 30.502 21.0984C30.0674 20.9834 29.7951 20.9409 29.6852 20.9734L27.894 27.2254C28.1194 27.3146 28.3403 27.4148 28.556 27.5255C28.8413 27.6824 29.1579 27.7738 29.4828 27.7931C29.832 27.8132 30.1748 27.8962 30.4946 28.0382C30.8502 28.1923 31.2367 28.2616 31.6237 28.2408C31.99 28.2122 32.3585 28.2366 32.7179 28.3133C33.0782 28.3959 33.4556 28.3608 33.7946 28.2132C34.0838 28.0783 34.3827 27.9655 34.6889 27.8756C34.9712 27.7981 35.2285 27.5855 35.4533 27.2479C35.6807 26.9103 35.8405 26.5802 35.933 26.2601L35.9829 26.0775Z" fill="#6D9F71"/>
</svg>