<svg width="40" height="41" viewBox="0 0 40 41" fill="none" xmlns="http://www.w3.org/2000/svg">
<path d="M7.02953 21.1108C15.4293 20.9262 23.8751 20.88 32.2749 21.0185C33.7517 21.0185 33.7517 18.7109 32.2749 18.7109C23.8751 18.5724 15.4293 18.6186 7.02953 18.8032C5.55266 18.8493 5.55266 21.1569 7.02953 21.1108Z" fill="#1C4A3A"/>
<path d="M25.9993 14.6034C26.9685 15.6187 27.9839 16.6802 28.9531 17.6956C29.4146 18.2033 29.8761 18.6648 30.3838 19.1725C30.6607 19.4494 30.8915 19.7263 31.1684 20.0032C31.2607 20.0955 31.3992 20.234 31.4915 20.3263C31.5838 20.4186 31.6299 20.5109 31.7222 20.557C31.8145 20.6493 31.8145 20.6493 31.7684 20.557C31.7684 20.3724 31.7684 20.1417 31.7684 19.957C31.8145 19.7263 31.9991 19.8186 31.7684 19.8647C31.5838 19.9109 31.4453 20.0955 31.3068 20.1878C30.9838 20.3724 30.6607 20.6032 30.3377 20.7878C29.6915 21.2032 29.0915 21.6185 28.4454 22.0339C27.1993 22.8646 25.907 23.6492 24.6609 24.48C23.4148 25.2646 24.5686 27.2953 25.8147 26.4645C27.2454 25.5415 28.6762 24.6184 30.0607 23.6954C30.7992 23.2339 31.5376 22.7723 32.2299 22.2647C32.876 21.8493 33.7068 21.4801 33.9375 20.6493C34.2144 19.7263 33.5222 19.0802 32.9683 18.4802C32.4145 17.8802 31.8145 17.2802 31.2607 16.6802C30.0607 15.4341 28.8608 14.188 27.6608 12.9419C26.5993 11.8804 24.984 13.5419 25.9993 14.6034Z" fill="#1C4A3A"/>
</svg>
